<?xml version="1.0" encoding="UTF-8" standalone="no"?>
<svg
   width="2241.1389"
   height="1779.4894"
   viewBox="0 0 2241.1389 1779.4894"
   version="1.1"
   xml:space="preserve"
   style="clip-rule:evenodd;fill-rule:evenodd;stroke-linecap:round;stroke-linejoin:round;stroke-miterlimit:1.5"
   id="svg637"
   xmlns="http://www.w3.org/2000/svg"
   xmlns:svg="http://www.w3.org/2000/svg"><defs
   id="defs641" />
    
    
    
    
    
    
    
    
    
    
    
    
    
    
    
    
    
    
    
    
    
    
    
    
    
    <g
   id="ac"
   transform="translate(-9438.4904,-1832.1902)">
        <path
   d="m 9448.82,2753.32 330.71,-652.61 283.47,-258.19 1606.3,614.17 -260.9,283.47 -282.4,661.42 z"
   style="fill:#ffffff"
   id="path558" />
        <path
   d="m 9448.82,2753.32 1677.18,648.26 282.4,-661.42 260.9,-283.47 -1606.3,-614.17 -283.47,258.19 z"
   style="fill:none;stroke:#000000;stroke-width:20.66px;stroke-miterlimit:4"
   id="path560" />
        <path
   d="m 9496.06,3023.62 v -252.04 l 1559.04,602.6 -20.2,227.17 z"
   style="fill:#ffffff"
   id="path562" />
        <path
   d="m 9496.06,3023.62 v -252.04 l 1559.04,602.6 -11.8,227.17 z"
   style="fill:none;stroke:#000000;stroke-width:20.66px;stroke-miterlimit:4"
   id="path564" />
        <path
   d="m 11034.9,3601.35 20.2,-227.17 70.9,27.4 282.4,-661.42 190,-188.98 47.3,212.6 z"
   style="fill:#ffffff"
   id="path566" />
        <path
   d="m 11043.3,3601.35 602.4,-837.57 -47.3,-212.6 -190,188.98 -282.4,661.42 -70.9,-27.4 z"
   style="fill:none;stroke:#000000;stroke-width:20.66px;stroke-miterlimit:4"
   id="path568" />
        <path
   d="m 9766.72,2125.98 1642.68,613.04"
   style="fill:none;stroke:#000000;stroke-width:20.66px;stroke-miterlimit:4"
   id="path570" />
        <path
   d="m 9850.39,2908.54 307.11,-636.73 377.9,-248.65"
   style="fill:none;stroke:#000000;stroke-width:20.66px;stroke-miterlimit:4"
   id="path572" />
        <path
   d="m 10398.4,3120.35 326,-636.97 378,-243.45"
   style="fill:none;stroke:#000000;stroke-width:20.66px;stroke-miterlimit:4"
   id="path574" />
        <path
   d="m 10771.7,3264.62 307,-649.01 330.7,-258.27"
   style="fill:none;stroke:#000000;stroke-width:20.66px;stroke-miterlimit:4"
   id="path576" />
        <path
   d="M 9992.13,3212.6 V 2963.32"
   style="fill:none;stroke:#000000;stroke-width:20.66px;stroke-miterlimit:4"
   id="path578" />
        <path
   d="m 10376.9,3354.33 16.8,-235.8"
   style="fill:none;stroke:#000000;stroke-width:20.66px;stroke-miterlimit:4"
   id="path580" />
        <path
   d="m 10771.7,3496.06 -5.8,-233.65"
   style="fill:none;stroke:#000000;stroke-width:20.66px;stroke-miterlimit:4"
   id="path582" />
    </g>
    
    
</svg>
