<?xml version="1.0" encoding="UTF-8" standalone="no"?>
<svg
   width="376.03281"
   height="474.38672"
   viewBox="0 0 376.03281 474.38672"
   version="1.1"
   xml:space="preserve"
   style="clip-rule:evenodd;fill-rule:evenodd;stroke-linejoin:round;stroke-miterlimit:2"
   id="svg894"
   xmlns="http://www.w3.org/2000/svg"
   xmlns:svg="http://www.w3.org/2000/svg"><defs
   id="defs898" />
    
    
    
    
    <g
   id="archery"
   transform="translate(-678.12938,-620.18822)">
        <g
   transform="matrix(7.88,0,0,7.88,-10272.1,-7621.74)"
   id="g226">
            <path
   d="m 1429.25,1046.46 -27.97,30.12 -11.12,9.77 26.48,-33.66 z"
   style="fill:#ffffff;stroke:#000000;stroke-width:1.06px"
   id="path224" />
        </g>
        <g
   transform="matrix(7.88,0,0,7.88,-10272.1,-7621.74)"
   id="g230">
            <path
   d="m 1409.07,1091.34 -7.56,-14.96 -0.23,0.2 27.97,-30.12 7.56,9.97 z"
   style="fill:#ffffff;stroke:#000000;stroke-width:1.06px"
   id="path228" />
        </g>
        <g
   transform="translate(-1.77165,10.6299)"
   id="g234">
            <path
   d="m 716.689,899.456 56.849,-49.963 45.496,89.968 -4.707,139.609 -97.638,-27.76 z"
   style="fill:#ffffff;stroke:#000000;stroke-width:8.33px"
   id="path232" />
        </g>
        <g
   transform="translate(-1.77165,10.6299)"
   id="g238">
            <path
   d="m 1042.44,704.018 v 114.451 l -85.513,97.689 -2.651,-101.197 z"
   style="fill:#ffffff;stroke:#000000;stroke-width:8.33px"
   id="path236" />
        </g>
        <g
   transform="translate(-1.77165,10.6299)"
   id="g242">
            <path
   d="m 956.927,916.158 -142.6,162.912 4.707,-139.609 14.119,27.921 121.123,-152.421 z"
   style="fill:#ffffff;stroke:#000000;stroke-width:8.33px"
   id="path240" />
        </g>
        <g
   transform="matrix(8.41243,0,0,8.31778,-10972.5,-8197.74)"
   id="g246">
            <path
   d="m 1385.43,1098.42 10.63,-9.44 7.09,14.17 25.98,-33.07 -7.08,-9.45 -11.81,5.91 z"
   style="fill:none;stroke:#000000;stroke-width:1px;stroke-linecap:round;stroke-miterlimit:1.5"
   id="path244" />
        </g>
        <g
   transform="matrix(7.88,0,0,11.7504,-10258.1,-11942.2)"
   id="g250">
            <path
   d="m 1392.52,1093.77 v 12.92 l 12.39,2.37 0.6,-11.89"
   style="fill:none;stroke:#000000;stroke-width:0.83px;stroke-linecap:round;stroke-miterlimit:1.5"
   id="path248" />
        </g>
        <g
   transform="matrix(7.88,0,0,7.88,-10258.1,-7705.5)"
   id="g254">
            <path
   d="m 1433.86,1068.55 v 14.52 l -28.95,33.07"
   style="fill:none;stroke:#000000;stroke-width:1.06px;stroke-linecap:round;stroke-miterlimit:1.5"
   id="path252" />
        </g>
        <g
   transform="matrix(7.88,0,0,7.88,-10258.1,-7705.5)"
   id="g258">
            <path
   d="m 1422.67,1082.63 0.34,12.84"
   style="fill:none;stroke:#000000;stroke-width:1.06px;stroke-linecap:round;stroke-miterlimit:1.5"
   id="path256" />
        </g>
        <g
   transform="matrix(7.88,0,0,7.88,-10272.1,-7621.74)"
   id="g262">
            <path
   d="m 1401.28,1076.58 27.97,-30.12"
   style="fill:none;stroke:#000000;stroke-width:1.06px;stroke-linecap:round;stroke-miterlimit:1.5"
   id="path260" />
        </g>
    </g>
    
    
    
    
    
    
    
    
    
</svg>
