<?xml version="1.0" encoding="UTF-8" standalone="no"?>
<svg
   width="437.24744"
   height="358.42999"
   viewBox="0 0 437.24744 358.42999"
   version="1.1"
   xml:space="preserve"
   style="clip-rule:evenodd;fill-rule:evenodd;stroke-linecap:round;stroke-linejoin:round;stroke-miterlimit:1.5"
   id="svg383"
   xmlns="http://www.w3.org/2000/svg"
   xmlns:svg="http://www.w3.org/2000/svg"><defs
   id="defs387" />
    
    
    
    
    
    
    
    
    
    
    
    
    
    
    
    
    
    
    
    <g
   id="baird"
   transform="translate(-2381.722,-3936.89)">
        <path
   d="m 2598.43,4187.26 -68.34,-100.65 -138.04,-9.4 186.29,-129.99 h 122.82 l 107.48,112.45 z"
   style="fill:#ffffff"
   id="path337" />
        <path
   d="m 2598.43,4187.26 210.21,-127.59 -107.48,-112.45 h -122.82 l -186.29,129.99 138.04,9.4 z"
   style="fill:none;stroke:#000000;stroke-width:20.66px"
   id="path339" />
        <path
   d="m 2530.09,4086.61 171.07,-139.39"
   style="fill:none;stroke:#000000;stroke-width:20.66px"
   id="path341" />
        <path
   d="m 2437.02,4080.28 93.07,6.33 48.11,70.87 -27.02,127.51 -122.28,-68.97 z"
   style="fill:#ffffff"
   id="path343" />
        <path
   d="m 2437.02,4080.28 -8.12,135.74 122.28,68.97 27.02,-127.51 -48.11,-70.87 z"
   style="fill:none;stroke:#000000;stroke-width:20.66px"
   id="path345" />
        <path
   d="m 2551.18,4284.99 27.02,-127.51 22.15,28.62 187.05,-113.54 -19.7,93.97 z"
   style="fill:#ffffff"
   id="path347" />
        <path
   d="m 2551.18,4284.99 216.52,-118.46 19.7,-93.97 -187.05,113.54 -22.15,-28.62 -27.02,127.51"
   style="fill:none;stroke:#000000;stroke-width:20.66px"
   id="path349" />
    </g>
    
</svg>
