<?xml version="1.0" encoding="UTF-8" standalone="no"?>
<svg
   width="438.18912"
   height="304.13"
   viewBox="0 0 438.18912 304.13"
   version="1.1"
   xml:space="preserve"
   style="clip-rule:evenodd;fill-rule:evenodd;stroke-linecap:round;stroke-linejoin:round;stroke-miterlimit:1.5"
   id="svg383"
   xmlns="http://www.w3.org/2000/svg"
   xmlns:svg="http://www.w3.org/2000/svg"><defs
   id="defs387" />
    
    
    
    
    
    
    
    
    
    
    
    
    
    <g
   id="bragg"
   transform="translate(-3446.16,-5800.69)">
        <path
   d="m 3456.49,5971.67 242.36,-142.25 80.68,-18.4 94.49,64.96 -163.76,95.69 -92.09,-89.78 z"
   style="fill:#ffffff"
   id="path245" />
        <path
   d="m 3456.49,5971.67 242.36,-142.25 80.68,-18.4 94.49,64.96 -163.76,95.69 -92.09,-89.78 -161.68,89.78"
   style="fill:none;stroke:#000000;stroke-width:20.66px"
   id="path247" />
        <path
   d="m 3618.17,5881.89 161.36,-70.87"
   style="fill:none;stroke:#000000;stroke-width:20.66px"
   id="path249" />
        <path
   d="m 3517.23,5937.94 100.94,-56.05 72.69,70.87 v 141.73 h -173.63 z"
   style="fill:#ffffff"
   id="path251" />
        <path
   d="m 3517.23,5937.94 100.94,-56.05 72.69,70.87 v 141.73 h -173.63 v -156.55"
   style="fill:none;stroke:#000000;stroke-width:20.66px"
   id="path253" />
        <path
   d="m 3690.86,6094.49 v -122.82 l 166.75,-80.32 V 6000 Z"
   style="fill:#ffffff"
   id="path255" />
        <path
   d="M 3690.86,6094.49 3857.61,6000 v -108.65 l -166.75,80.32 z"
   style="fill:none;stroke:#000000;stroke-width:20.66px"
   id="path257" />
        <path
   d="m 3456.49,5971.67 57.29,-31.91 3.45,36.62 z"
   style="fill:#ffffff"
   id="path259" />
        <path
   d="m 3456.49,5971.67 60.74,4.71 -3.45,-36.62 z"
   style="fill:none;stroke:#000000;stroke-width:20.66px"
   id="path261" />
    </g>
    
    
    
    
    
    
    
</svg>
