<?xml version="1.0" encoding="UTF-8" standalone="no"?>
<svg
   width="369.02377"
   height="359.03134"
   viewBox="0 0 369.02377 359.03134"
   version="1.1"
   xml:space="preserve"
   style="clip-rule:evenodd;fill-rule:evenodd;stroke-linejoin:round;stroke-miterlimit:2"
   id="svg894"
   xmlns="http://www.w3.org/2000/svg"
   xmlns:svg="http://www.w3.org/2000/svg"><defs
   id="defs898" />
    
    
    
    
    
    
    
    
    
    
    
    
    
    <g
   id="chapel"
   transform="matrix(3.39301,0,0,3.39301,-7474.2592,-524.02223)">
        <g
   transform="matrix(0.294724,0,0,0.294724,1600.64,119.337)"
   id="g843">
            <path
   d="m 2047.44,342.016 168.57,-198.1 192.11,-20.632 -168.04,240.449 z"
   style="fill:#ffffff;stroke:#000000;stroke-width:8.33px"
   id="path841" />
        </g>
        <g
   transform="matrix(0.294724,0,0,0.294724,1600.64,119.337)"
   id="g847">
            <path
   d="m 2047.44,342.016 192.64,21.717 168.04,-240.449 -0.89,40.075 -169.68,232.373 -190.11,-52.036 z"
   style="fill:#ffffff;stroke:#000000;stroke-width:8.33px"
   id="path845" />
        </g>
        <g
   transform="translate(-16.3997,49.3727)"
   id="g851">
            <path
   d="m 2220.47,170.765 56.78,6.4 49.52,-70.866 -56.62,6.081 z"
   style="fill:none;stroke:#000000;stroke-width:2.46px;stroke-linecap:round;stroke-miterlimit:1.5"
   id="path849" />
        </g>
        <g
   transform="translate(-16.3997,49.3727)"
   id="g855">
            <path
   d="m 2276.57,177.165 v 32.489"
   style="fill:none;stroke:#000000;stroke-width:2.46px;stroke-linecap:round;stroke-miterlimit:1.5"
   id="path853" />
        </g>
        <g
   transform="translate(-16.3997,49.3727)"
   id="g859">
            <path
   d="m 2220.47,170.765 v 18.211"
   style="fill:none;stroke:#000000;stroke-width:2.46px;stroke-linecap:round;stroke-miterlimit:1.5"
   id="path857" />
        </g>
        <g
   transform="translate(-16.3997,49.3727)"
   id="g863">
            <path
   d="m 2326.77,106.299 -1.18,53.15"
   style="fill:none;stroke:#000000;stroke-width:2.46px;stroke-linecap:round;stroke-miterlimit:1.5"
   id="path861" />
        </g>
        <g
   transform="translate(-16.3997,49.3727)"
   id="g867">
            <path
   d="m 2232.28,172.096 48.15,-60.819"
   style="fill:none;stroke:#000000;stroke-width:2.46px;stroke-linecap:round;stroke-miterlimit:1.5"
   id="path865" />
        </g>
        <g
   transform="matrix(1.01749,-0.02209,-0.02209,1.02791,-39.8642,95.2076)"
   id="g871">
            <path
   d="m 2232.28,172.096 48.15,-60.819"
   style="fill:none;stroke:#000000;stroke-width:2.45px;stroke-linecap:round;stroke-miterlimit:1.5"
   id="path869" />
        </g>
        <g
   transform="matrix(1.04024,-0.0508363,-0.0508363,1.06422,-71.069,154.778)"
   id="g875">
            <path
   d="m 2232.28,172.096 48.15,-60.819"
   style="fill:none;stroke:#000000;stroke-width:2.45px;stroke-linecap:round;stroke-miterlimit:1.5"
   id="path873" />
        </g>
        <g
   transform="translate(-16.3997,49.3727)"
   id="g879">
            <path
   d="m 2220.47,171.26 56.1,15.354"
   style="fill:none;stroke:#000000;stroke-width:2.46px;stroke-linecap:round;stroke-miterlimit:1.5"
   id="path877" />
        </g>
        <g
   transform="matrix(0.987988,-0.00169894,-0.00169894,0.99976,11.3495,53.2975)"
   id="g883">
            <path
   d="m 2232.87,155.315 54.28,7.677"
   style="fill:none;stroke:#000000;stroke-width:2.48px;stroke-linecap:round;stroke-miterlimit:1.5"
   id="path881" />
        </g>
        <g
   transform="translate(-16.3997,49.3727)"
   id="g887">
            <path
   d="m 2262.26,121.654 53.37,0.59"
   style="fill:none;stroke:#000000;stroke-width:2.46px;stroke-linecap:round;stroke-miterlimit:1.5"
   id="path885" />
        </g>
        <g
   transform="translate(-12.931,37.5616)"
   id="g891">
            <path
   d="m 2273.03,198.407 50.01,-68.486"
   style="fill:none;stroke:#000000;stroke-width:2.46px;stroke-linecap:round;stroke-miterlimit:1.5"
   id="path889" />
        </g>
    </g>
</svg>
