<?xml version="1.0" encoding="UTF-8" standalone="no"?>
<svg
   width="377.20987"
   height="415.14902"
   viewBox="0 0 377.20987 415.14902"
   version="1.1"
   xml:space="preserve"
   style="clip-rule:evenodd;fill-rule:evenodd;stroke-linecap:round;stroke-linejoin:round;stroke-miterlimit:1.5"
   id="svg383"
   xmlns="http://www.w3.org/2000/svg"
   xmlns:svg="http://www.w3.org/2000/svg"><defs
   id="defs387" />
    
    
    
    
    
    
    
    
    
    
    
    
    
    
    
    
    <g
   id="clements"
   transform="translate(-1286.8451,-6351.74)">
        <path
   d="m 1477.95,6677.3 -180.59,-154.45 44.42,-160.78 h 136.17 l 175.59,197.02 -126.78,-44.43 z"
   style="fill:#ffffff"
   id="path290" />
        <g
   transform="matrix(1.15292,0,0,1.11206,-237.811,-730.626)"
   id="g294">
            <path
   d="m 1488.19,6661.42 42.33,-146.26 109.97,39.96 -152.3,-177.17 h -118.11 l -38.53,144.58 z"
   style="fill:none;stroke:#000000;stroke-width:18.24px"
   id="path292" />
        </g>
        <path
   d="M 1526.76,6514.66 1341.78,6362.07"
   style="fill:none;stroke:#000000;stroke-width:20.66px"
   id="path296" />
        <path
   d="m 1322.84,6544.64 124.65,106.61 v 105.31 l -124.65,-89.24 z"
   style="fill:#ffffff"
   id="path298" />
        <path
   d="m 1322.84,6544.64 v 122.68 l 124.65,89.24 v -105.31 z"
   style="fill:none;stroke:#000000;stroke-width:20.66px"
   id="path300" />
        <path
   d="m 1446.58,6755.91 v -105.44 l 31.37,26.83 47.31,-157.61 91.61,23.62 v 118.11 z"
   style="fill:#ffffff"
   id="path302" />
        <path
   d="m 1446.58,6755.91 170.29,-94.49 v -118.11 l -91.61,-23.62 -47.31,157.61 -31.37,-26.83 z"
   style="fill:none;stroke:#000000;stroke-width:20.66px"
   id="path304" />
    </g>
    
    
    
    
</svg>
