<?xml version="1.0" encoding="UTF-8" standalone="no"?>
<svg
   width="800.1781"
   height="597.8092"
   viewBox="0 0 800.1781 597.8092"
   version="1.1"
   xml:space="preserve"
   style="clip-rule:evenodd;fill-rule:evenodd;stroke-linecap:round;stroke-linejoin:round;stroke-miterlimit:1.5"
   id="svg383"
   xmlns="http://www.w3.org/2000/svg"
   xmlns:svg="http://www.w3.org/2000/svg"><defs
   id="defs387" />
    
    
    
    
    
    
    
    
    
    
    
    
    
    
    
    
    
    
    
    
    <g
   id="davis"
   transform="translate(-4099.9114,-2847.9402)">
        <path
   d="m 4346.46,3382.43 -118.11,-169.83 -118.11,-47.25 212.6,-118.11 -23.63,-35.51 94.49,-82.6 94.49,-23.62 23.62,47.25 141.73,-94.49 118.11,70.86 118.11,165.36 -94.48,47.24 23.62,50.98 h -188.98 l -118.11,161.62 -47.24,-28.57 z"
   style="fill:#ffffff"
   id="path352" />
        <path
   d="m 4346.46,3382.43 -118.11,-169.83 -118.11,-47.25 212.6,-118.11 -23.63,-35.51 94.49,-82.6 94.49,-23.62 23.62,47.25 141.73,-94.49 118.11,70.86 118.11,165.36 -94.48,47.24 23.62,50.98 h -188.98 l -118.11,161.62 -47.24,-28.57 z"
   style="fill:none;stroke:#000000;stroke-width:20.66px"
   id="path354" />
        <path
   d="M 4322.84,3435.42 4133.86,3283.47 V 3174.8 l 94.49,37.8 94.49,135.86 z"
   style="fill:#ffffff"
   id="path356" />
        <path
   d="M 4322.84,3435.42 4133.86,3283.47 V 3174.8 l 94.49,37.8 94.49,135.86 z"
   style="fill:none;stroke:#000000;stroke-width:20.66px"
   id="path358" />
        <path
   d="m 4467.46,3382.43 -2.89,-56.67 35.43,27.46 v 79.53 z"
   style="fill:#ffffff"
   id="path360" />
        <path
   d="m 4467.46,3382.43 32.54,50.32 v -79.53 l -35.43,-27.46 z"
   style="fill:none;stroke:#000000;stroke-width:20.66px"
   id="path362" />
        <path
   d="m 4500,3435.42 v -88.23 l 11.81,7.14 118.11,-161.62 h 188.98 v 90.76 z"
   style="fill:#ffffff"
   id="path364" />
        <path
   d="m 4500,3435.42 318.9,-151.95 v -90.76 h -188.98 l -118.11,161.62 -11.81,-7.14 z"
   style="fill:none;stroke:#000000;stroke-width:20.66px"
   id="path366" />
        <path
   d="m 4818.9,3177.16 -23.62,-35.43 70.86,-35.43 v 35.43 z"
   style="fill:#ffffff"
   id="path368" />
        <path
   d="m 4866.14,3106.3 v 35.43 l -47.24,35.43"
   style="fill:none;stroke:#000000;stroke-width:20.66px"
   id="path370" />
        <path
   d="m 4818.9,3177.16 -23.62,-35.43 70.86,-35.43"
   style="fill:none;stroke:#000000;stroke-width:20.66px"
   id="path372" />
        <path
   d="M 4629.92,3192.71 4393.7,2929.13"
   style="fill:none;stroke:#000000;stroke-width:20.66px"
   id="path374" />
        <path
   d="m 4228.35,3212.6 543.3,-283.47"
   style="fill:none;stroke:#000000;stroke-width:20.66px"
   id="path376" />
        <path
   d="m 4322.84,3432.75 v -84.29 l 23.62,33.97 118.11,-56.67 2.89,56.67 z"
   style="fill:#ffffff"
   id="path378" />
        <path
   d="m 4322.84,3432.75 144.62,-50.32 -2.89,-56.67 -118.11,56.67 -23.62,-33.97 z"
   style="fill:none;stroke:#000000;stroke-width:20.66px"
   id="path380" />
    </g>
</svg>
