<?xml version="1.0" encoding="UTF-8" standalone="no"?>
<svg
   width="1367.12"
   height="1057.7097"
   viewBox="0 0 1367.12 1057.7097"
   version="1.1"
   xml:space="preserve"
   style="clip-rule:evenodd;fill-rule:evenodd;stroke-linecap:round;stroke-linejoin:round;stroke-miterlimit:1.5"
   id="svg637"
   xmlns="http://www.w3.org/2000/svg"
   xmlns:svg="http://www.w3.org/2000/svg"
   xmlns:serif="http://www.serif.com/"><defs
   id="defs641" />
    
    
    <g
   id="dining-hall"
   serif:id="dining hall"
   transform="translate(-7265.26,-3887.3103)">
        <g
   id="g137">
            <path
   d="m 7402.41,4204.72 912.55,-307.08 47.24,235.79 -52.72,16.87 v -40.06 l -55.56,-47.25 -94.49,-70.86 -47.25,70.86 77.56,125.62 -149.92,47.96 v -31.85 l -55.57,-47.24 -94.49,-70.87 -47.24,70.87 73.33,118.76 -163.66,52.36 v -23.23 l -55.56,-47.24 -94.49,-70.87 -47.25,70.87 68.88,111.56 -205.46,65.73 -1.07,-0.93 z"
   style="fill:#ffffff"
   id="path32" />
            <path
   d="m 7606.3,4937.6 -2.28,-2.91 2.28,-88.09 961.53,-311.17 52.61,62.64 z"
   style="fill:#ffffff"
   id="path34" />
            <path
   d="m 7307.26,4338.49 110.06,97.25 0.99,-0.32 0.36,0.32 45.9,118.67 47.24,-14.84 v 137.59 l -204.55,-241.42 z"
   style="fill:#ffffff"
   id="path36" />
            <clipPath
   id="_clip1">
                <path
   d="m 7307.26,4338.49 110.06,97.25 0.99,-0.32 0.36,0.32 45.9,118.67 47.24,-14.84 v 137.59 l -204.55,-241.42 z"
   id="path38" />
            </clipPath>
            <g
   clip-path="url(#_clip1)"
   id="g43">
                <path
   d="m 7402.41,4204.72 912.55,-307.08 47.24,235.79 -52.72,16.87 v -40.06 l -55.56,-47.25 -94.49,-70.86 -47.25,70.86 77.56,125.62 -149.92,47.96 v -31.85 l -55.57,-47.24 -94.49,-70.87 -47.24,70.87 73.33,118.76 -163.66,52.36 v -23.23 l -55.56,-47.24 -94.49,-70.87 -47.25,70.87 68.88,111.56 -205.46,65.73 -1.07,-0.93 z"
   style="fill:#ffffff"
   id="path41" />
            </g>
            <path
   d="m 7497.75,4700.79 14.06,-23.63 141.73,154.15 -30.95,10.02 z"
   style="fill:#ffffff"
   id="path45" />
            <path
   d="m 7606.3,4934.69 1014.14,-336.62 1.61,-85.08 -1015.75,333.61 z"
   style="fill:#ffffff;stroke:#000000;stroke-width:20.66px"
   id="path47" />
            <path
   d="m 8620.44,4513.52 -966.9,317.79 -141.73,-154.15 959.16,-333.24 32.97,49.78 -51.41,17.46 86.49,96.67 48.39,-19.64 z"
   style="fill:#ffffff"
   id="path49" />
            <path
   d="m 8620.44,4513.52 -966.9,317.79 -141.73,-154.15 959.16,-333.24 32.97,49.78 -51.41,17.46 86.49,96.67 48.39,-19.64 z"
   style="fill:none;stroke:#000000;stroke-width:20.66px"
   id="path51" />
            <path
   d="m 7418.67,4435.74 45.9,118.67 963.32,-302.44 -65.69,-118.54 -944.88,302.31 -14.91,-231.02 -126.82,105.79"
   style="fill:#ffffff;stroke:#000000;stroke-width:20.66px"
   id="path53" />
            <path
   d="m 7307.26,4338.49 v 97.25 l 204.55,241.42"
   style="fill:none;stroke:#000000;stroke-width:20.66px"
   id="path55" />
            <path
   d="m 7511.81,4539.57 v 137.59"
   style="fill:none;stroke:#000000;stroke-width:20.66px"
   id="path57" />
            <path
   d="M 8409.45,4362.97 V 4258.06"
   style="fill:none;stroke:#000000;stroke-width:20.66px"
   id="path59" />
            <path
   d="m 7402.41,4204.72 912.55,-307.08 47.24,235.79"
   style="fill:none;stroke:#000000;stroke-width:20.66px"
   id="path61" />
            <path
   d="m 7511.81,4677.16 141.73,154.15"
   style="fill:none;stroke:#000000;stroke-width:20.66px"
   id="path63" />
            <path
   d="m 7511.81,4677.16 143.56,153.55 -49.07,15.89 -2.28,88.09 -139.45,-178.15 z"
   style="fill:#ffffff;stroke:#000000;stroke-width:20.66px"
   id="path65" />
            <path
   d="m 7606.3,4883.86 -2.28,50.83"
   style="fill:none;stroke:#000000;stroke-width:20.66px"
   id="path67" />
            <g
   id="g85">
                <path
   d="m 7937.01,4310.51 v -82.16 l 102.81,-23.63 v 70.87 z"
   style="fill:#ffffff"
   id="path69" />
                <path
   d="m 7842.52,4157.48 94.49,70.87 v 82.16 z"
   style="fill:#ffffff"
   id="path71" />
                <path
   d="m 7842.52,4157.48 47.24,-70.87 94.49,70.87 -47.24,70.87 z"
   style="fill:#ffffff"
   id="path73" />
                <path
   d="m 7984.25,4157.48 55.57,47.24 -102.81,23.63 z"
   style="fill:#ffffff"
   id="path75" />
                <g
   id="g83">
                    <path
   d="m 7937.01,4228.35 -94.49,-70.87 47.24,-70.87 94.49,70.87 55.57,47.24 z"
   style="fill:none;stroke:#000000;stroke-width:20.66px"
   id="path77" />
                    <path
   d="m 7984.25,4157.48 -47.24,70.87 v 82.16 l 102.81,-34.92 v -70.87"
   style="fill:none;stroke:#000000;stroke-width:20.66px"
   id="path79" />
                    <path
   d="m 7842.52,4157.48 94.49,153.03"
   style="fill:none;stroke:#000000;stroke-width:20.66px"
   id="path81" />
                </g>
            </g>
            <g
   transform="translate(-287.626,100.649)"
   id="g103">
                <path
   d="m 7937.01,4310.51 v -82.16 l 102.81,-23.63 v 70.87 z"
   style="fill:#ffffff"
   id="path87" />
                <path
   d="m 7842.52,4157.48 94.49,70.87 v 82.16 z"
   style="fill:#ffffff"
   id="path89" />
                <path
   d="m 7842.52,4157.48 47.24,-70.87 94.49,70.87 -47.24,70.87 z"
   style="fill:#ffffff"
   id="path91" />
                <path
   d="m 7984.25,4157.48 55.57,47.24 -102.81,23.63 z"
   style="fill:#ffffff"
   id="path93" />
                <g
   id="g101">
                    <path
   d="m 7937.01,4228.35 -94.49,-70.87 47.24,-70.87 94.49,70.87 55.57,47.24 z"
   style="fill:none;stroke:#000000;stroke-width:20.66px"
   id="path95" />
                    <path
   d="m 7984.25,4157.48 -47.24,70.87 v 82.16 l 102.81,-34.92 v -70.87"
   style="fill:none;stroke:#000000;stroke-width:20.66px"
   id="path97" />
                    <path
   d="m 7842.52,4157.48 94.49,153.03"
   style="fill:none;stroke:#000000;stroke-width:20.66px"
   id="path99" />
                </g>
            </g>
            <g
   transform="translate(269.665,-94.4882)"
   id="g121">
                <path
   d="m 7937.01,4310.51 v -82.16 l 102.81,-23.63 v 70.87 z"
   style="fill:#ffffff"
   id="path105" />
                <path
   d="m 7842.52,4157.48 94.49,70.87 v 82.16 z"
   style="fill:#ffffff"
   id="path107" />
                <path
   d="m 7842.52,4157.48 47.24,-70.87 94.49,70.87 -47.24,70.87 z"
   style="fill:#ffffff"
   id="path109" />
                <path
   d="m 7984.25,4157.48 55.57,47.24 -102.81,23.63 z"
   style="fill:#ffffff"
   id="path111" />
                <g
   id="g119">
                    <path
   d="m 7937.01,4228.35 -94.49,-70.87 47.24,-70.87 94.49,70.87 55.57,47.24 z"
   style="fill:none;stroke:#000000;stroke-width:20.66px"
   id="path113" />
                    <path
   d="m 7984.25,4157.48 -47.24,70.87 v 82.16 l 102.81,-34.92 v -70.87"
   style="fill:none;stroke:#000000;stroke-width:20.66px"
   id="path115" />
                    <path
   d="m 7842.52,4157.48 94.49,153.03"
   style="fill:none;stroke:#000000;stroke-width:20.66px"
   id="path117" />
                </g>
            </g>
            <path
   d="m 7275.59,4310.51 141.73,125.23"
   style="fill:none;stroke:#000000;stroke-width:20.66px"
   id="path123" />
            <path
   d="m 7511.81,4677.16 v -137.59 l 897.64,-281.51 v 104.91 z"
   style="fill:#ffffff"
   id="path125" />
            <path
   d="m 7511.81,4677.16 v -137.59 l 897.64,-281.51 v 104.91 z"
   style="fill:none;stroke:#000000;stroke-width:20.66px"
   id="path127" />
            <path
   d="m 8539.02,4507.83 -82.33,-98.08 47.25,-16.05 v 23.62 l 70.86,75.99 z"
   style="fill:#ffffff"
   id="path129" />
            <path
   d="m 8539.02,4507.83 35.78,-14.52 -70.86,-75.99 v -23.62 l -47.25,16.05 z"
   style="fill:none;stroke:#000000;stroke-width:20.66px"
   id="path131" />
            <path
   d="m 7479.69,4731.73 126.61,152.91"
   style="fill:none;stroke:#000000;stroke-width:20.66px"
   id="path133" />
            <path
   d="m 7497.75,4700.79 120.36,135.5"
   style="fill:none;stroke:#000000;stroke-width:20.66px"
   id="path135" />
        </g>
    </g>
    
    
    
    
    
    
    
    
    
    
    
    
    
    
    
    
    
    
    
    
    
    
    
    
    
</svg>
