<?xml version="1.0" encoding="UTF-8" standalone="no"?>
<svg
   width="398.61938"
   height="304.1199"
   viewBox="0 0 398.61938 304.1199"
   version="1.1"
   xml:space="preserve"
   style="clip-rule:evenodd;fill-rule:evenodd;stroke-linecap:round;stroke-linejoin:round;stroke-miterlimit:1.5"
   id="svg383"
   xmlns="http://www.w3.org/2000/svg"
   xmlns:svg="http://www.w3.org/2000/svg"><defs
   id="defs387" />
    
    
    <g
   id="everest"
   transform="translate(-5458.1703,-5611.72)">
        <path
   d="m 5480.32,5716.53 -11.82,-11.81 59.06,-82.67 9.52,141.73 z"
   style="fill:#ffffff"
   id="path26" />
        <path
   d="m 5537.08,5763.78 -9.52,-141.73 h 283.46 l 35.44,129.92 z"
   style="fill:#ffffff"
   id="path28" />
        <path
   d="m 5557.88,5905.51 -77.56,-106.3 v -82.68 l 56.76,47.25 h 20.8 z"
   style="fill:#ffffff"
   id="path30" />
        <path
   d="m 5557.88,5905.51 -77.56,-106.3 v -82.68 l -11.82,-11.81 59.06,-82.67 9.52,141.73 h 20.8 z"
   style="fill:none;stroke:#000000;stroke-width:20.66px"
   id="path32" />
        <path
   d="m 5480.32,5716.53 56.76,47.25"
   style="fill:none;stroke:#000000;stroke-width:20.66px"
   id="path34" />
        <path
   d="m 5537.08,5763.78 309.38,-11.81 -35.44,-129.92 h -283.46 z"
   style="fill:none;stroke:#000000;stroke-width:20.66px"
   id="path36" />
        <path
   d="m 5557.88,5905.51 v -142.53 l 253.14,-9.66 v 128.57 z"
   style="fill:#ffffff"
   id="path38" />
        <path
   d="m 5557.88,5905.51 253.14,-23.62 v -128.57 l -253.14,9.66 z"
   style="fill:none;stroke:#000000;stroke-width:20.66px"
   id="path40" />
    </g>
    
    
    
    
    
    
    
    
    
    
    
    
    
    
    
    
    
    
</svg>
