<?xml version="1.0" encoding="UTF-8" standalone="no"?>
<svg
   width="330.23901"
   height="374.98999"
   viewBox="0 0 330.23901 374.98999"
   version="1.1"
   xml:space="preserve"
   style="clip-rule:evenodd;fill-rule:evenodd;stroke-linecap:round;stroke-linejoin:round;stroke-miterlimit:1.5"
   id="svg383"
   xmlns="http://www.w3.org/2000/svg"
   xmlns:svg="http://www.w3.org/2000/svg"><defs
   id="defs387" />
    
    
    
    
    
    
    
    <g
   id="farris"
   transform="translate(-6710.1403,-6414.87)">
        <path
   d="m 6750,6555.12 88.58,87.77 v 136.64 l -94.49,-129.92 z"
   style="fill:#ffffff"
   id="path147" />
        <path
   d="m 6750,6555.12 -5.91,94.49 94.49,129.92 v -136.64 z"
   style="fill:none;stroke:#000000;stroke-width:20.66px"
   id="path149" />
        <path
   d="m 6803.15,6661.42 -82.68,-165.36 118.11,-70.86 h 106.3 l 85.17,206.5 -121.97,-25.14 z"
   style="fill:#ffffff"
   id="path151" />
        <path
   d="m 6803.15,6661.42 -82.68,-165.36 118.11,-70.86 h 106.3 l 85.17,206.5 -121.97,-25.14 z"
   style="fill:none;stroke:#000000;stroke-width:20.66px"
   id="path153" />
        <path
   d="m 6838.58,6779.53 v -136.64 l 70.87,-36.05 82.68,17.05 v 155.64 z"
   style="fill:#ffffff"
   id="path155" />
        <path
   d="m 6838.58,6779.53 h 153.55 v -155.64 l -82.68,-17.05 -70.87,36.05 z"
   style="fill:none;stroke:#000000;stroke-width:20.66px"
   id="path157" />
        <path
   d="M 6909.45,6606.84 6838.58,6425.2"
   style="fill:none;stroke:#000000;stroke-width:20.66px"
   id="path159" />
    </g>
    
    
    
    
    
    
    
    
    
    
    
    
    
</svg>
