<?xml version="1.0" encoding="UTF-8" standalone="no"?>
<svg
   width="272.27499"
   height="244.53223"
   viewBox="0 0 272.27499 244.53223"
   version="1.1"
   xml:space="preserve"
   style="clip-rule:evenodd;fill-rule:evenodd;stroke-linejoin:round;stroke-miterlimit:2"
   id="svg894"
   xmlns="http://www.w3.org/2000/svg"
   xmlns:svg="http://www.w3.org/2000/svg"
   xmlns:serif="http://www.serif.com/"><defs
   id="defs898" />
    
    
    
    <g
   id="fishing-dock"
   serif:id="fishing dock"
   transform="translate(-1962.9431,-758.9892)">
        <g
   transform="matrix(3.10391,0,0,3.10391,-4298.14,-1957.05)"
   id="g173">
            <path
   d="m 2051.57,892.913 v -4.689 l 38.98,2.327 -0.26,4.725 z"
   style="fill:#ffffff"
   id="path171" />
        </g>
        <g
   transform="matrix(3.10391,0,0,3.10391,-4298.14,-1957.05)"
   id="g177">
            <path
   d="m 2020.87,888.189 h 30.11 l 0.59,0.035 v 4.689 l -30.11,0.591 z"
   style="fill:#ffffff"
   id="path175" />
        </g>
        <g
   transform="matrix(3.10391,0,0,3.10391,-4298.14,-1957.05)"
   id="g181">
            <path
   d="m 2020.87,888.189 v -11.811 h 30.7 v 11.846 l -0.59,-0.035 z"
   style="fill:#ffffff"
   id="path179" />
        </g>
        <g
   transform="matrix(3.10391,0,0,3.10391,-4298.14,-1957.05)"
   id="g185">
            <path
   d="m 2048.03,934.252 38.98,2.362 2.36,-24.803 1.18,-21.26 -38.98,-2.327 v -11.846 l 51.97,1.181 v 33.071 l -3.54,37.795 -51.97,-2.362 z"
   style="fill:#ffffff"
   id="path183" />
        </g>
        <g
   transform="matrix(3.10391,0,0,3.10391,-4298.14,-1957.05)"
   id="g189">
            <path
   d="m 2018.5,944.882 v -10.63 h 29.53 v 11.811 z"
   style="fill:#ffffff"
   id="path187" />
        </g>
        <g
   transform="matrix(3.10391,0,0,3.10391,-4298.14,-1957.05)"
   id="g193">
            <path
   d="m 2018.5,944.882 29.53,1.181 v 4.724 h -28.35 z"
   style="fill:#ffffff"
   id="path191" />
        </g>
        <g
   transform="matrix(3.10391,0,0,3.10391,-4298.14,-1957.05)"
   id="g197">
            <path
   d="m 2048.03,950.787 v -4.724 l 51.97,2.362 v 4.725 z"
   style="fill:#ffffff"
   id="path195" />
        </g>
        <g
   transform="matrix(3.10391,0,0,3.10391,-4298.14,-1957.05)"
   id="g201">
            <path
   d="m 2018.5,944.882 v -10.63 h 29.53 l 38.98,2.362 2.36,-24.803 1.18,-21.26 -39.57,-2.362 h -30.11 v -11.811 h 30.7 l 51.97,1.181 v 33.071 l -3.54,37.795 -51.97,-2.362 z"
   style="fill:none;stroke:#000000;stroke-width:2.68px;stroke-linecap:round;stroke-miterlimit:1.5"
   id="path199" />
        </g>
        <g
   transform="matrix(3.10391,0,0,3.10391,-4298.14,-1957.05)"
   id="g205">
            <path
   d="M 2051.57,888.224 V 876.378"
   style="fill:none;stroke:#000000;stroke-width:2.68px;stroke-linecap:round;stroke-miterlimit:1.5"
   id="path203" />
        </g>
        <g
   transform="matrix(3.10391,0,0,3.10391,-4298.14,-1957.05)"
   id="g209">
            <path
   d="m 2048.03,934.252 v 11.811"
   style="fill:none;stroke:#000000;stroke-width:2.68px;stroke-linecap:round;stroke-miterlimit:1.5"
   id="path207" />
        </g>
        <g
   transform="matrix(3.10391,0,0,3.10391,-4298.14,-1957.05)"
   id="g213">
            <path
   d="m 2020.87,888.189 0.59,5.315 30.11,-0.591 v -5.905 5.905 l 38.72,2.363"
   style="fill:none;stroke:#000000;stroke-width:1.34px;stroke-linecap:round;stroke-miterlimit:1.5"
   id="path211" />
        </g>
        <g
   transform="matrix(3.10391,0,0,3.10391,-4298.14,-1957.05)"
   id="g217">
            <path
   d="m 2018.5,944.882 1.18,5.905 h 28.35 l 51.97,2.363 v -4.725"
   style="fill:none;stroke:#000000;stroke-width:1.34px;stroke-linecap:round;stroke-miterlimit:1.5"
   id="path215" />
        </g>
        <g
   transform="matrix(3.10391,0,0,3.10391,-4298.14,-1957.05)"
   id="g221">
            <path
   d="m 2048.03,946.063 v 4.724"
   style="fill:none;stroke:#000000;stroke-width:1.34px;stroke-linecap:round;stroke-miterlimit:1.5"
   id="path219" />
        </g>
    </g>
    
    
    
    
    
    
    
    
    
    
</svg>
