<?xml version="1.0" encoding="UTF-8" standalone="no"?>
<svg
   width="126.46224"
   height="330.1409"
   viewBox="0 0 126.46224 330.1409"
   version="1.1"
   xml:space="preserve"
   style="clip-rule:evenodd;fill-rule:evenodd;stroke-linejoin:round;stroke-miterlimit:2"
   id="svg894"
   xmlns="http://www.w3.org/2000/svg"
   xmlns:svg="http://www.w3.org/2000/svg"><defs
   id="defs898" />
    
    
    <g
   id="flag"
   transform="translate(-1181.8191,-475.09995)">
        <g
   transform="matrix(3.14975,0,0,3.14975,-4618.43,-1676.57)"
   id="g156">
            <path
   d="m 1844.88,687.402 -2.06,-0.886 1.18,-2.067 2.95,1.476 z"
   style="fill:#ffffff;stroke:#000000;stroke-width:2.65px"
   id="path154" />
        </g>
        <g
   transform="matrix(3.14975,0,0,3.14975,-4618.43,-1676.57)"
   id="g160">
            <path
   d="m 1844.88,687.402 35.44,12.992 -3.55,23.622 -32.2,-10.63 z"
   style="fill:#ffffff;stroke:#000000;stroke-width:2.65px"
   id="path158" />
        </g>
        <g
   transform="matrix(3.14975,0,0,3.14975,-4618.43,-1676.57)"
   id="g164">
            <path
   d="m 1843.7,786.614 1.18,-99.212 -2.06,-0.886 1.18,-2.067 2.95,1.476 -2.07,1.477"
   style="fill:none;stroke:#000000;stroke-width:2.65px;stroke-linecap:round;stroke-miterlimit:1.5"
   id="path162" />
        </g>
        <g
   transform="matrix(3.14975,0,0,3.14975,-4618.43,-1676.57)"
   id="g168">
            <path
   d="m 1844.88,687.402 35.44,12.992 -3.55,23.622 -32.2,-10.63"
   style="fill:none;stroke:#000000;stroke-width:2.65px;stroke-linecap:round;stroke-miterlimit:1.5"
   id="path166" />
        </g>
    </g>
    
    
    
    
    
    
    
    
    
    
    
</svg>
