<?xml version="1.0" encoding="UTF-8" standalone="no"?>
<svg
   width="161.05608"
   height="283.2225"
   viewBox="0 0 161.05608 283.2225"
   version="1.1"
   xml:space="preserve"
   style="clip-rule:evenodd;fill-rule:evenodd;stroke-linejoin:round;stroke-miterlimit:2"
   id="svg894"
   xmlns="http://www.w3.org/2000/svg"
   xmlns:svg="http://www.w3.org/2000/svg"><defs
   id="defs898" />
    
    
    
    
    
    
    
    
    <g
   id="house-2"
   transform="translate(-2047.7935,-1149.7581)">
        <g
   transform="matrix(3.69395,0,0,3.69395,-4697.47,-2480.39)"
   id="g462">
            <path
   d="M 1833.07,998.819 V 986.22 l 8.27,-2.362 3.54,7.087 z"
   style="fill:#ffffff;stroke:#000000;stroke-width:2.26px"
   id="path460" />
        </g>
        <g
   transform="matrix(3.69395,0,0,3.69395,-4697.47,-2480.39)"
   id="g466">
            <path
   d="m 1841.34,983.858 11.81,2.362 1.18,5.315 -9.45,-0.59 z"
   style="fill:#ffffff;stroke:#000000;stroke-width:2.26px"
   id="path464" />
        </g>
        <g
   transform="matrix(3.69395,0,0,3.69395,-4697.47,-2480.39)"
   id="g470">
            <path
   d="m 1846.95,1009.84 -2.07,-18.895 18.9,1.181 4.72,23.624 z"
   style="fill:#ffffff;stroke:#000000;stroke-width:2.26px"
   id="path468" />
        </g>
        <g
   transform="matrix(3.69395,0,0,3.69395,-4697.47,-2480.39)"
   id="g474">
            <path
   d="m 1844.88,990.945 2.07,18.895 -18.6,15.36 -1.19,-22.44 z"
   style="fill:#ffffff;stroke:#000000;stroke-width:2.26px"
   id="path472" />
        </g>
        <g
   transform="matrix(3.69395,0,0,3.69395,-4697.47,-2480.39)"
   id="g478">
            <path
   d="m 1838.98,1027.56 -3.55,-8.21 11.52,-9.51 14.47,3.97 1.18,9.45 -12.99,-2.79 z"
   style="fill:#ffffff;stroke:#000000;stroke-width:2.26px"
   id="path476" />
        </g>
        <g
   transform="matrix(3.69395,0,0,3.69395,-4697.47,-2480.39)"
   id="g482">
            <path
   d="m 1853.15,1035.83 -3.54,-15.36 16.53,3.55 -1.18,16.53 z"
   style="fill:#ffffff;stroke:#000000;stroke-width:2.26px"
   id="path480" />
        </g>
        <g
   transform="matrix(3.69395,0,0,3.69395,-4697.47,-2480.39)"
   id="g486">
            <path
   d="m 1849.61,1020.47 3.54,15.36 -15.35,9.45 -2.37,-15.36 z"
   style="fill:#ffffff;stroke:#000000;stroke-width:2.26px"
   id="path484" />
        </g>
        <g
   transform="matrix(3.69395,0,0,3.69395,-4697.47,-2480.39)"
   id="g490">
            <path
   d="m 1841.34,1043.1 11.81,-7.27 8.27,3.3 v 17.37 l -18.9,1.77 z"
   style="fill:#ffffff;stroke:#000000;stroke-width:2.26px"
   id="path488" />
        </g>
        <g
   transform="matrix(3.69395,0,0,3.69395,-4697.47,-2480.39)"
   id="g494">
            <path
   d="m 1837.8,1045.28 15.35,-9.45 11.81,4.72 1.18,-16.53 -16.53,-3.55 -14.18,9.45 z"
   style="fill:none;stroke:#000000;stroke-width:2.26px;stroke-linecap:round;stroke-miterlimit:1.5"
   id="path492" />
        </g>
        <g
   transform="matrix(3.69395,0,0,3.69395,-4697.47,-2480.39)"
   id="g498">
            <path
   d="m 1828.35,1025.2 18.6,-15.36 21.55,5.91 -4.72,-23.624 -18.9,-1.181 -17.72,11.815 z"
   style="fill:none;stroke:#000000;stroke-width:2.26px;stroke-linecap:round;stroke-miterlimit:1.5"
   id="path496" />
        </g>
        <g
   transform="matrix(3.69395,0,0,3.69395,-4697.47,-2480.39)"
   id="g502">
            <path
   d="m 1841.34,1043.1 1.18,15.17 18.9,-1.77 v -17.37"
   style="fill:none;stroke:#000000;stroke-width:2.26px;stroke-linecap:round;stroke-miterlimit:1.5"
   id="path500" />
        </g>
        <g
   transform="matrix(3.69395,0,0,3.69395,-4697.47,-2480.39)"
   id="g506">
            <path
   d="M 1833.07,998.819 V 986.22 l 8.27,-2.362 11.81,2.362 1.18,5.315"
   style="fill:none;stroke:#000000;stroke-width:2.26px;stroke-linecap:round;stroke-miterlimit:1.5"
   id="path504" />
        </g>
        <g
   transform="matrix(3.69395,0,0,3.69395,-4697.47,-2480.39)"
   id="g510">
            <path
   d="m 1841.34,983.858 3.54,7.087"
   style="fill:none;stroke:#000000;stroke-width:2.26px;stroke-linecap:round;stroke-miterlimit:1.5"
   id="path508" />
        </g>
        <g
   transform="matrix(3.69395,0,0,3.69395,-4697.47,-2480.39)"
   id="g514">
            <path
   d="m 1862.6,1023.26 -1.18,-9.45"
   style="fill:none;stroke:#000000;stroke-width:2.26px;stroke-linecap:round;stroke-miterlimit:1.5"
   id="path512" />
        </g>
        <g
   transform="matrix(3.69395,0,0,3.69395,-4697.47,-2480.39)"
   id="g518">
            <path
   d="m 1838.98,1027.56 -3.55,-8.21"
   style="fill:none;stroke:#000000;stroke-width:2.26px;stroke-linecap:round;stroke-miterlimit:1.5"
   id="path516" />
        </g>
        <g
   transform="matrix(3.69395,0,0,3.69395,-4697.47,-2480.39)"
   id="g522">
            <path
   d="m 1846.95,1009.84 -2.07,-18.895"
   style="fill:none;stroke:#000000;stroke-width:2.26px;stroke-linecap:round;stroke-miterlimit:1.5"
   id="path520" />
        </g>
        <g
   transform="matrix(3.69395,0,0,3.69395,-4697.47,-2480.39)"
   id="g526">
            <path
   d="m 1853.15,1035.83 -3.54,-15.36"
   style="fill:none;stroke:#000000;stroke-width:2.26px;stroke-linecap:round;stroke-miterlimit:1.5"
   id="path524" />
        </g>
    </g>
    
    
    
    
    
</svg>
