<?xml version="1.0" encoding="UTF-8" standalone="no"?>
<svg
   width="203.88504"
   height="280.78836"
   viewBox="0 0 203.88504 280.78836"
   version="1.1"
   xml:space="preserve"
   style="clip-rule:evenodd;fill-rule:evenodd;stroke-linejoin:round;stroke-miterlimit:2"
   id="svg894"
   xmlns="http://www.w3.org/2000/svg"
   xmlns:svg="http://www.w3.org/2000/svg"><defs
   id="defs898" />
    
    
    
    
    
    
    
    <g
   id="house-1"
   transform="translate(-1712.4997,-1282.4493)">
        <g
   transform="matrix(3.72053,0,0,3.72053,-6125.02,-3927.26)"
   id="g425">
            <path
   d="m 2116.24,1461.61 20.37,-12.4 17.72,7.88 v 13.97 l -15.35,1.78 -21.85,1.77 z"
   style="fill:#ffffff;stroke:#000000;stroke-width:2.24px"
   id="path423" />
        </g>
        <g
   transform="matrix(3.72053,0,0,3.72053,-6125.02,-3927.26)"
   id="g429">
            <path
   d="m 2152.56,1427.12 -18.31,0.83 -2.95,-26.57 20.08,11.81 z"
   style="fill:#ffffff;stroke:#000000;stroke-width:2.24px"
   id="path427" />
        </g>
        <g
   transform="matrix(3.72053,0,0,3.72053,-6125.02,-3927.26)"
   id="g433">
            <path
   d="m 2160.24,1426.77 -4.73,12.99 2.36,18.9 -21.26,-9.45 -2.36,-21.26 z"
   style="fill:#ffffff;stroke:#000000;stroke-width:2.24px"
   id="path431" />
        </g>
        <g
   transform="matrix(3.72053,0,0,3.72053,-6125.02,-3927.26)"
   id="g437">
            <path
   d="m 2131.3,1401.38 5.31,47.83 -27.16,16.54 -1.77,-48.43 z"
   style="fill:#ffffff;stroke:#000000;stroke-width:2.24px"
   id="path435" />
        </g>
        <g
   transform="matrix(3.72053,0,0,3.72053,-6125.02,-3927.26)"
   id="g441">
            <path
   d="m 2109.45,1465.75 27.16,-16.54 21.26,9.45 -2.36,-18.9 4.73,-12.99"
   style="fill:none;stroke:#000000;stroke-width:2.24px;stroke-linecap:round;stroke-miterlimit:1.5"
   id="path439" />
        </g>
        <g
   transform="matrix(3.72053,0,0,3.72053,-6125.02,-3927.26)"
   id="g445">
            <path
   d="m 2152.56,1427.12 -1.18,-13.93 -20.08,-11.81 -23.62,15.94 1.77,48.43"
   style="fill:none;stroke:#000000;stroke-width:2.24px;stroke-linecap:round;stroke-miterlimit:1.5"
   id="path443" />
        </g>
        <g
   transform="matrix(3.72053,0,0,3.72053,-6125.02,-3927.26)"
   id="g449">
            <path
   d="m 2131.3,1401.38 5.31,47.83"
   style="fill:none;stroke:#000000;stroke-width:2.24px;stroke-linecap:round;stroke-miterlimit:1.5"
   id="path447" />
        </g>
        <g
   transform="matrix(3.72053,0,0,3.72053,-6125.02,-3927.26)"
   id="g453">
            <path
   d="m 2160.24,1426.77 -25.99,1.18"
   style="fill:none;stroke:#000000;stroke-width:2.24px;stroke-linecap:round;stroke-miterlimit:1.5"
   id="path451" />
        </g>
        <g
   transform="matrix(3.72053,0,0,3.72053,-6125.02,-3927.26)"
   id="g457">
            <path
   d="m 2116.24,1461.61 0.89,13 21.85,-1.77 15.35,-1.78 v -13.97"
   style="fill:none;stroke:#000000;stroke-width:2.24px;stroke-linecap:round;stroke-miterlimit:1.5"
   id="path455" />
        </g>
    </g>
    
    
    
    
    
    
</svg>
