<?xml version="1.0" encoding="UTF-8" standalone="no"?>
<svg
   width="469.90466"
   height="294.9696"
   viewBox="0 0 469.90466 294.9696"
   version="1.1"
   xml:space="preserve"
   style="clip-rule:evenodd;fill-rule:evenodd;stroke-linecap:round;stroke-linejoin:round;stroke-miterlimit:1.5"
   id="svg637"
   xmlns="http://www.w3.org/2000/svg"
   xmlns:svg="http://www.w3.org/2000/svg"><defs
   id="defs641" />
    
    <g
   id="infirmary"
   transform="translate(-9438.4949,-3848.79)">
        <path
   d="m 9448.82,3968.5 307.09,-109.38 94.48,14.9 47.68,104.04 -260.27,84.93 -70.87,-94.49 z"
   style="fill:#ffffff"
   id="path15" />
        <path
   d="m 9448.82,3968.5 h 118.11 l 70.87,94.49 260.27,-84.93 -47.68,-104.04 -94.48,-14.9 z"
   style="fill:none;stroke:#000000;stroke-width:20.66px"
   id="path17" />
        <path
   d="m 9472.44,3968.5 h 94.49 l 47.24,63 v 101.93 l -141.73,-94.06 z"
   style="fill:#ffffff"
   id="path19" />
        <path
   d="m 9472.44,3968.5 v 70.87 l 141.73,94.06 V 4031.5 l -47.24,-63 z"
   style="fill:none;stroke:#000000;stroke-width:20.66px"
   id="path21" />
        <path
   d="M 9614.17,4133.43 V 4031.5 l 23.63,31.49 236.22,-77.08 v 65.27 z"
   style="fill:#ffffff"
   id="path23" />
        <path
   d="m 9614.17,4133.43 259.85,-82.25 v -65.27 l -236.22,77.08 -23.63,-31.49 z"
   style="fill:none;stroke:#000000;stroke-width:20.66px"
   id="path25" />
        <g
   transform="matrix(1.3,-0.1,-0.1,1.03333,-2473.23,824.409)"
   id="g29">
            <path
   d="m 9566.93,3968.5 212.6,-70.86"
   style="fill:none;stroke:#000000;stroke-width:19.22px"
   id="path27" />
        </g>
    </g>
    
    
    
    
    
    
    
    
    
    
    
    
    
    
    
    
    
    
    
    
    
    
    
    
    
    
</svg>
