<?xml version="1.0" encoding="UTF-8" standalone="no"?>
<svg
   width="170.52502"
   height="259.6824"
   viewBox="0 0 170.52502 259.6824"
   version="1.1"
   xml:space="preserve"
   style="clip-rule:evenodd;fill-rule:evenodd;stroke-linejoin:round;stroke-miterlimit:2"
   id="svg894"
   xmlns="http://www.w3.org/2000/svg"
   xmlns:svg="http://www.w3.org/2000/svg"
   xmlns:serif="http://www.serif.com/"><defs
   id="defs898" />
    
    
    
    
    
    
    
    
    
    
    
    
    <g
   id="lake-tower"
   serif:id="lake tower"
   transform="translate(-2363.9074,-527.59337)">
        <g
   transform="matrix(4.31273,0,0,4.31273,-6815.76,-2300.13)"
   id="g650">
            <path
   d="m 2160.24,683.858 -11.81,5.906 v -10.04 l 11.81,3.544 z"
   style="fill:#ffffff;stroke:#000000;stroke-width:1.45px"
   id="path648" />
        </g>
        <g
   transform="matrix(4.31273,0,0,4.31273,-6815.76,-2300.13)"
   id="g654">
            <path
   d="m 2136.43,686.22 -6.89,-1.771 6.89,-3.448 z"
   style="fill:#ffffff;stroke:#000000;stroke-width:1.45px"
   id="path652" />
        </g>
        <g
   transform="matrix(4.31273,0,0,4.31273,-6815.76,-2300.13)"
   id="g658">
            <path
   d="m 2140.12,687.22 -3.69,-1 v -5.219 l 3.69,-1.848 z"
   style="fill:#ffffff;stroke:#000000;stroke-width:1.45px"
   id="path656" />
        </g>
        <g
   transform="matrix(4.31273,0,0,4.31273,-6815.76,-2300.13)"
   id="g662">
            <path
   d="m 2142.52,677.953 5.91,1.771 v 9.745 l -8.31,-2.363 v -7.953 z"
   style="fill:#ffffff;stroke:#000000;stroke-width:1.45px"
   id="path660" />
        </g>
        <g
   transform="matrix(4.31273,0,0,4.31273,-6815.76,-2300.13)"
   id="g666">
            <path
   d="m 2147.84,715.157 v -3.893 l 0.59,0.35 11.46,-9.744 0.35,3.396 z"
   style="fill:#ffffff;stroke:#000000;stroke-width:1.45px"
   id="path664" />
        </g>
        <g
   transform="matrix(4.31273,0,0,4.31273,-6815.76,-2300.13)"
   id="g670">
            <path
   d="m 2130.12,700.744 17.72,10.52 v 3.893 l -17.72,-10.629 z"
   style="fill:#ffffff;stroke:#000000;stroke-width:1.45px"
   id="path668" />
        </g>
        <g
   transform="matrix(4.31273,0,0,4.31273,-6815.76,-2300.13)"
   id="g674">
            <path
   d="m 2136.43,704.492 -6.9,-4.098 6.9,-4.602 z"
   style="fill:#ffffff;stroke:#000000;stroke-width:1.45px"
   id="path672" />
        </g>
        <g
   transform="matrix(4.31273,0,0,4.31273,-6815.76,-2300.13)"
   id="g678">
            <path
   d="m 2140.12,706.683 -3.69,-2.191 v -8.7 l 3.69,-2.46 z"
   style="fill:#ffffff;stroke:#000000;stroke-width:1.45px"
   id="path676" />
        </g>
        <g
   transform="matrix(4.31273,0,0,4.31273,-6815.76,-2300.13)"
   id="g682">
            <path
   d="m 2148.43,711.614 -8.31,-4.931 v -13.351 l 1.81,-1.206 6.5,3.353 z"
   style="fill:#ffffff;stroke:#000000;stroke-width:1.45px"
   id="path680" />
        </g>
        <g
   transform="matrix(4.31273,0,0,4.31273,-6815.76,-2300.13)"
   id="g686">
            <path
   d="m 2160.24,701.575 -11.81,10.039 v -16.135 z"
   style="fill:#ffffff;stroke:#000000;stroke-width:1.45px"
   id="path684" />
        </g>
        <g
   transform="matrix(4.31273,0,0,4.31273,-6815.76,-2300.13)"
   id="g690">
            <path
   d="m 2156.73,694.488 -8.3,-4.724 11.81,-5.906 7.08,3.544 z"
   style="fill:#ffffff;stroke:#000000;stroke-width:1.45px"
   id="path688" />
        </g>
        <g
   transform="matrix(4.31273,0,0,4.31273,-6815.76,-2300.13)"
   id="g694">
            <path
   d="m 2129.53,664.071 14.17,-3.835 16.54,4.725 -11.81,4.724 -18.89,-5.61 z"
   style="fill:#ffffff;stroke:#000000;stroke-width:1.45px"
   id="path692" />
        </g>
        <g
   transform="matrix(4.31273,0,0,4.31273,-6815.76,-2300.13)"
   id="g698">
            <path
   d="m 2129.53,700.394 12.4,-8.268 18.31,9.449 -11.81,10.039 z"
   style="fill:none;stroke:#000000;stroke-width:1.45px;stroke-linecap:round;stroke-miterlimit:1.5"
   id="path696" />
        </g>
        <g
   transform="matrix(4.31273,0,0,4.31273,-6815.76,-2300.13)"
   id="g702">
            <path
   d="m 2136.43,704.492 v -38.35"
   style="fill:none;stroke:#000000;stroke-width:1.45px;stroke-linecap:round;stroke-miterlimit:1.5"
   id="path700" />
        </g>
        <g
   transform="matrix(4.31273,0,0,4.31273,-6815.76,-2300.13)"
   id="g706">
            <path
   d="M 2140.12,706.683 V 667.249"
   style="fill:none;stroke:#000000;stroke-width:1.45px;stroke-linecap:round;stroke-miterlimit:1.5"
   id="path704" />
        </g>
        <g
   transform="matrix(4.31273,0,0,4.31273,-6815.76,-2300.13)"
   id="g710">
            <path
   d="M 2148.43,711.614 V 669.685"
   style="fill:none;stroke:#000000;stroke-width:1.45px;stroke-linecap:round;stroke-miterlimit:1.5"
   id="path708" />
        </g>
        <g
   transform="matrix(4.31273,0,0,4.31273,-6815.76,-2300.13)"
   id="g714">
            <path
   d="m 2148.43,669.685 11.81,-4.724"
   style="fill:none;stroke:#000000;stroke-width:1.45px;stroke-linecap:round;stroke-miterlimit:1.5"
   id="path712" />
        </g>
        <g
   transform="matrix(4.31273,0,0,4.31273,-6815.76,-2300.13)"
   id="g718">
            <path
   d="m 2148.43,689.764 11.81,-5.906"
   style="fill:none;stroke:#000000;stroke-width:1.45px;stroke-linecap:round;stroke-miterlimit:1.5"
   id="path716" />
        </g>
        <g
   transform="matrix(4.31273,0,0,4.31273,-6815.76,-2300.13)"
   id="g722">
            <path
   d="m 2148.43,689.764 8.3,4.724 10.59,-7.086 -7.08,-3.544"
   style="fill:none;stroke:#000000;stroke-width:1.45px;stroke-linecap:round;stroke-miterlimit:1.5"
   id="path720" />
        </g>
        <g
   transform="matrix(4.31273,0,0,4.31273,-6815.76,-2300.13)"
   id="g726">
            <path
   d="m 2148.43,694.488 8.26,-0.021"
   style="fill:none;stroke:#000000;stroke-width:1.45px;stroke-linecap:round;stroke-miterlimit:1.5"
   id="path724" />
        </g>
        <g
   transform="matrix(6.62489,0.693647,0.693647,4.52082,-12247.4,-3929.61)"
   id="g730">
            <path
   d="m 2148.36,669.666 -11.93,-3.524"
   style="fill:none;stroke:#000000;stroke-width:0.98px;stroke-linecap:round;stroke-miterlimit:1.5"
   id="path728" />
        </g>
        <g
   transform="matrix(4.31273,0,0,4.31273,-6815.76,-2300.13)"
   id="g734">
            <path
   d="M 2160.24,683.858 V 664.961"
   style="fill:none;stroke:#000000;stroke-width:1.45px;stroke-linecap:round;stroke-miterlimit:1.5"
   id="path732" />
        </g>
        <g
   transform="matrix(4.31273,0,0,4.31273,-6815.76,-2300.13)"
   id="g738">
            <path
   d="m 2160.24,701.575 v -9.433"
   style="fill:none;stroke:#000000;stroke-width:1.45px;stroke-linecap:round;stroke-miterlimit:1.5"
   id="path736" />
        </g>
        <g
   transform="matrix(4.31273,0,0,4.31273,-6815.76,-2300.13)"
   id="g742">
            <path
   d="m 2141.96,692.142 -0.03,-4.521"
   style="fill:none;stroke:#000000;stroke-width:1.45px;stroke-linecap:round;stroke-miterlimit:1.5"
   id="path740" />
        </g>
        <g
   transform="matrix(4.31273,0,0,4.31273,-6815.76,-2300.13)"
   id="g746">
            <path
   d="m 2142.52,677.953 17.72,5.315"
   style="fill:none;stroke:#000000;stroke-width:1.45px;stroke-linecap:round;stroke-miterlimit:1.5"
   id="path744" />
        </g>
        <g
   transform="matrix(4.31273,0,0,4.49547,-6815.76,-2428.12)"
   id="g750">
            <path
   d="m 2129.53,700.394 0.01,-34.843"
   style="fill:none;stroke:#000000;stroke-width:1.42px;stroke-linecap:round;stroke-miterlimit:1.5"
   id="path748" />
        </g>
        <g
   transform="matrix(4.31273,0,0,4.31273,-6815.76,-2300.13)"
   id="g754">
            <path
   d="m 2140.12,687.106 8.31,2.363 -12,-3.249 -6.89,-1.771 12.98,-6.496"
   style="fill:none;stroke:#000000;stroke-width:1.45px;stroke-linecap:round;stroke-miterlimit:1.5"
   id="path752" />
        </g>
        <g
   transform="matrix(4.31273,0,0,4.31273,-6815.76,-2300.13)"
   id="g758">
            <path
   d="m 2129.53,664.071 14.17,-3.835 16.54,4.725"
   style="fill:none;stroke:#000000;stroke-width:1.45px;stroke-linecap:round;stroke-miterlimit:1.5"
   id="path756" />
        </g>
        <g
   transform="matrix(4.31273,0,0,4.31273,-6815.76,-2300.13)"
   id="g762">
            <path
   d="m 2142.52,677.953 v -9.984"
   style="fill:none;stroke:#000000;stroke-width:1.45px;stroke-linecap:round;stroke-miterlimit:1.5"
   id="path760" />
        </g>
        <g
   transform="matrix(4.31273,0,0,4.31273,-6815.76,-2300.13)"
   id="g766">
            <path
   d="m 2148.43,669.685 v -4.724 l -5.91,-1.88 v 5.423"
   style="fill:none;stroke:#000000;stroke-width:1.45px;stroke-linecap:round;stroke-miterlimit:1.5"
   id="path764" />
        </g>
        <g
   transform="matrix(4.31273,0,0,4.31273,-6815.76,-2300.13)"
   id="g770">
            <path
   d="m 2142.52,665.256 5.91,1.772"
   style="fill:none;stroke:#000000;stroke-width:1.45px;stroke-linecap:round;stroke-miterlimit:1.5"
   id="path768" />
        </g>
        <g
   transform="matrix(4.31273,0,0,4.31273,-6815.76,-2300.13)"
   id="g774">
            <path
   d="m 2129.54,664.068 -0.31,-4.422 14.47,-3.248 v 3.838"
   style="fill:none;stroke:#000000;stroke-width:1.45px;stroke-linecap:round;stroke-miterlimit:1.5"
   id="path772" />
        </g>
        <g
   transform="matrix(4.31273,0,0,4.31273,-6815.76,-2300.13)"
   id="g778">
            <path
   d="m 2129.4,661.606 14.3,-3.579"
   style="fill:none;stroke:#000000;stroke-width:1.45px;stroke-linecap:round;stroke-miterlimit:1.5"
   id="path776" />
        </g>
        <g
   transform="matrix(4.31273,0,0,4.31273,-6815.76,-2300.13)"
   id="g782">
            <path
   d="m 2143.7,656.394 16.54,3.695"
   style="fill:none;stroke:#000000;stroke-width:1.45px;stroke-linecap:round;stroke-miterlimit:1.5"
   id="path780" />
        </g>
        <g
   transform="matrix(4.31273,0,0,4.31273,-6815.76,-2300.13)"
   id="g786">
            <path
   d="m 2160.24,660.169 v 4.792"
   style="fill:none;stroke:#000000;stroke-width:1.45px;stroke-linecap:round;stroke-miterlimit:1.5"
   id="path784" />
        </g>
        <g
   transform="matrix(4.31273,0,0,4.31273,-6815.76,-2300.13)"
   id="g790">
            <path
   d="m 2160.24,662.451 -16.54,-4.577"
   style="fill:none;stroke:#000000;stroke-width:1.45px;stroke-linecap:round;stroke-miterlimit:1.5"
   id="path788" />
        </g>
        <g
   transform="matrix(4.03397,-0.0995585,-0.0995585,4.27717,-6152.37,-2063.2)"
   id="g794">
            <path
   d="m 2136.02,669.39 4.14,1.476"
   style="fill:none;stroke:#000000;stroke-width:1.54px;stroke-linecap:round;stroke-miterlimit:1.5"
   id="path792" />
        </g>
        <g
   transform="matrix(4.31273,0,0,4.31273,-6815.76,-2300.13)"
   id="g798">
            <path
   d="m 2136.47,674.114 3.39,1.181"
   style="fill:none;stroke:#000000;stroke-width:1.45px;stroke-linecap:round;stroke-miterlimit:1.5"
   id="path796" />
        </g>
        <g
   transform="matrix(3.88702,-0.123075,-0.123075,4.27715,-5821.09,-2012.57)"
   id="g802">
            <path
   d="m 2136.02,677.949 4.1,1.185"
   style="fill:none;stroke:#000000;stroke-width:1.58px;stroke-linecap:round;stroke-miterlimit:1.5"
   id="path800" />
        </g>
        <g
   transform="matrix(4.31273,0,0,4.31273,-6815.76,-2300.13)"
   id="g806">
            <path
   d="m 2136.61,681.791 3.55,1.82"
   style="fill:none;stroke:#000000;stroke-width:1.45px;stroke-linecap:round;stroke-miterlimit:1.5"
   id="path804" />
        </g>
        <g
   transform="matrix(4.31273,0,0,4.31273,-6815.76,-2300.13)"
   id="g810">
            <path
   d="m 2136.43,686.217 3.69,1.404"
   style="fill:none;stroke:#000000;stroke-width:1.45px;stroke-linecap:round;stroke-miterlimit:1.5"
   id="path808" />
        </g>
        <g
   transform="matrix(3.90008,-0.148704,-0.148704,4.25914,-5829.88,-1944.86)"
   id="g814">
            <path
   d="m 2136.02,689.469 4.1,1.476"
   style="fill:none;stroke:#000000;stroke-width:1.59px;stroke-linecap:round;stroke-miterlimit:1.5"
   id="path812" />
        </g>
        <g
   transform="matrix(4.03763,-0.0991361,-0.0991361,4.27701,-6158.5,-2051.1)"
   id="g818">
            <path
   d="m 2136.02,689.469 4.1,1.476"
   style="fill:none;stroke:#000000;stroke-width:1.54px;stroke-linecap:round;stroke-miterlimit:1.5"
   id="path816" />
        </g>
        <g
   transform="matrix(4.31273,0,0,4.31273,-6815.76,-2300.13)"
   id="g822">
            <path
   d="m 2136.32,702.461 3.84,1.476"
   style="fill:none;stroke:#000000;stroke-width:1.45px;stroke-linecap:round;stroke-miterlimit:1.5"
   id="path820" />
        </g>
        <g
   transform="matrix(4.48106,0.0524954,0.0524954,4.3291,-7210.13,-2423.12)"
   id="g826">
            <path
   d="m 2136.02,699.508 3.55,1.105"
   style="fill:none;stroke:#000000;stroke-width:1.4px;stroke-linecap:round;stroke-miterlimit:1.5"
   id="path824" />
        </g>
        <g
   transform="matrix(4.31273,0,0,4.31273,-6815.76,-2300.13)"
   id="g830">
            <path
   d="m 2136.47,695.377 3.65,1.482"
   style="fill:none;stroke:#000000;stroke-width:1.45px;stroke-linecap:round;stroke-miterlimit:1.5"
   id="path828" />
        </g>
        <g
   transform="matrix(4.31273,0,0,4.31273,-6815.76,-2300.13)"
   id="g834">
            <path
   d="m 2130.12,700.744 v 3.784 l 17.72,10.629 v -3.893"
   style="fill:none;stroke:#000000;stroke-width:1.45px;stroke-linecap:round;stroke-miterlimit:1.5"
   id="path832" />
        </g>
        <g
   transform="matrix(4.31273,0,0,4.31273,-6815.76,-2300.13)"
   id="g838">
            <path
   d="m 2147.84,715.157 12.4,-9.891 -0.35,-3.396"
   style="fill:none;stroke:#000000;stroke-width:1.45px;stroke-linecap:round;stroke-miterlimit:1.5"
   id="path836" />
        </g>
    </g>
    
</svg>
