<?xml version="1.0" encoding="UTF-8" standalone="no"?>
<svg
   width="145.79756"
   height="325.71906"
   viewBox="0 0 145.79756 325.71906"
   version="1.1"
   xml:space="preserve"
   style="clip-rule:evenodd;fill-rule:evenodd;stroke-linejoin:round;stroke-miterlimit:2"
   id="svg894"
   xmlns="http://www.w3.org/2000/svg"
   xmlns:svg="http://www.w3.org/2000/svg"><defs
   id="defs898" />
    
    
    
    
    
    
    <g
   id="lodge"
   transform="translate(-1144.1452,-434.34838)">
        <g
   transform="matrix(2.874,0,0,2.874,-4362.64,-1664.37)"
   id="g348">
            <path
   d="m 1925.99,806.209 5.22,19.04 -6.01,2.704 -4.14,-16.536 z"
   style="fill:#ffffff;stroke:#000000;stroke-width:2.9px"
   id="path346" />
        </g>
        <g
   transform="matrix(2.874,0,0,2.874,-4362.64,-1664.37)"
   id="g352">
            <path
   d="m 1931.21,825.249 -5.22,-19.04 10.72,-11.327 18.61,7.087 10.03,24.803 -16.53,-9.449 z"
   style="fill:#ffffff;stroke:#000000;stroke-width:2.9px"
   id="path350" />
        </g>
        <g
   transform="matrix(2.874,0,0,2.874,-4362.64,-1664.37)"
   id="g356">
            <path
   d="m 1952.45,792.52 0.5,8.549 -16.24,-6.187 -9.15,9.672 -0.59,-9.131 8.27,-9.99 z"
   style="fill:#ffffff;stroke:#000000;stroke-width:2.9px"
   id="path354" />
        </g>
        <g
   transform="matrix(2.874,0,0,2.874,-4362.64,-1664.37)"
   id="g360">
            <path
   d="m 1935.83,842.126 -6.5,-16.033 5.91,-2.658 z"
   style="fill:#ffffff;stroke:#000000;stroke-width:2.9px"
   id="path358" />
        </g>
        <g
   transform="matrix(2.874,0,0,2.874,-4362.64,-1664.37)"
   id="g364">
            <path
   d="m 1935.83,842.126 -0.59,-18.691 13.58,-6.112 12.99,7.424 v 16.198 z"
   style="fill:#ffffff;stroke:#000000;stroke-width:2.9px"
   id="path362" />
        </g>
        <g
   transform="matrix(2.874,0,0,2.874,-4362.64,-1664.37)"
   id="g368">
            <path
   d="m 1925.2,827.953 23.62,-10.63 16.53,9.449 -10.03,-24.803 -18.61,-7.087 -15.65,16.535 z"
   style="fill:#ffffff;stroke:#000000;stroke-width:2.9px;stroke-linecap:round;stroke-miterlimit:1.5"
   id="path366" />
        </g>
        <g
   transform="matrix(2.874,0,0,2.874,-4362.64,-1664.37)"
   id="g372">
            <path
   d="m 1926.67,731.789 0.11,-0.096 14.95,1.772 2.36,21.496 -10.97,-2.195 z"
   style="fill:#ffffff;stroke:#000000;stroke-width:2.9px"
   id="path370" />
        </g>
        <g
   transform="matrix(2.874,0,0,2.874,-4362.64,-1664.37)"
   id="g376">
            <path
   d="m 1921.65,760.093 -4.13,-20.723 9.15,-7.581 6.45,20.977 -2.02,-0.404 z"
   style="fill:#ffffff;stroke:#000000;stroke-width:2.9px"
   id="path374" />
        </g>
        <g
   transform="matrix(2.874,0,0,2.874,-4362.64,-1664.37)"
   id="g380">
            <path
   d="m 1921.06,802.559 -2.95,-39.567 12.7,-10.388 4.62,32.91 -0.19,-0.081 z"
   style="fill:#ffffff;stroke:#000000;stroke-width:2.9px"
   id="path378" />
        </g>
        <g
   transform="matrix(2.874,0,0,2.874,-4362.64,-1664.37)"
   id="g384">
            <path
   d="m 1935.43,785.514 -4.62,-32.91 0.29,-0.242 17.72,3.544 6.5,37.795 z"
   style="fill:#ffffff;stroke:#000000;stroke-width:2.9px"
   id="path382" />
        </g>
        <g
   transform="matrix(2.874,0,0,2.874,-4362.64,-1664.37)"
   id="g388">
            <path
   d="m 1921.06,802.559 14.18,-17.126 20.08,8.268 -6.5,-37.795 -17.72,-3.544 -12.99,10.63 z"
   style="fill:none;stroke:#000000;stroke-width:2.9px;stroke-linecap:round;stroke-miterlimit:1.5"
   id="path386" />
        </g>
        <g
   transform="matrix(2.874,0,0,2.874,-4362.64,-1664.37)"
   id="g392">
            <path
   d="m 1926.97,795.423 0.59,9.131"
   style="fill:none;stroke:#000000;stroke-width:2.9px;stroke-linecap:round;stroke-miterlimit:1.5"
   id="path390" />
        </g>
        <g
   transform="matrix(2.874,0,0,2.874,-4362.64,-1664.37)"
   id="g396">
            <path
   d="m 1952.45,792.52 0.5,8.549"
   style="fill:none;stroke:#000000;stroke-width:2.9px;stroke-linecap:round;stroke-miterlimit:1.5"
   id="path394" />
        </g>
        <g
   transform="matrix(2.874,0,0,2.874,-4362.64,-1664.37)"
   id="g400">
            <path
   d="m 1935.24,823.435 0.59,18.691 25.98,-1.181 v -16.198"
   style="fill:none;stroke:#000000;stroke-width:2.9px;stroke-linecap:round;stroke-miterlimit:1.5"
   id="path398" />
        </g>
        <g
   transform="matrix(2.874,0,0,2.874,-4362.64,-1664.37)"
   id="g404">
            <path
   d="m 1921.65,760.093 -4.13,-20.723 9.26,-7.677 14.95,1.772 2.36,21.496"
   style="fill:none;stroke:#000000;stroke-width:2.9px;stroke-linecap:round;stroke-miterlimit:1.5"
   id="path402" />
        </g>
        <g
   transform="matrix(2.874,0,0,2.874,-4362.64,-1664.37)"
   id="g408">
            <path
   d="m 1935.83,842.126 -6.5,-16.033"
   style="fill:none;stroke:#000000;stroke-width:2.9px;stroke-linecap:round;stroke-miterlimit:1.5"
   id="path406" />
        </g>
        <g
   transform="matrix(2.874,0,0,2.874,-4362.64,-1664.37)"
   id="g412">
            <path
   d="m 1935.43,785.514 -4.62,-32.91"
   style="fill:none;stroke:#000000;stroke-width:2.9px;stroke-linecap:round;stroke-miterlimit:1.5"
   id="path410" />
        </g>
        <g
   transform="matrix(2.874,0,0,2.874,-4362.64,-1664.37)"
   id="g416">
            <path
   d="m 1933.12,752.766 -6.48,-21.073"
   style="fill:none;stroke:#000000;stroke-width:2.9px;stroke-linecap:round;stroke-miterlimit:1.5"
   id="path414" />
        </g>
        <g
   transform="matrix(2.874,0,0,2.874,-4362.64,-1664.37)"
   id="g420">
            <path
   d="m 1948.82,817.323 -11.81,-21.9"
   style="fill:none;stroke:#000000;stroke-width:2.9px;stroke-linecap:round;stroke-miterlimit:1.5"
   id="path418" />
        </g>
    </g>
    
    
    
    
    
    
    
</svg>
