<?xml version="1.0" encoding="UTF-8" standalone="no"?>
<svg
   width="386.30099"
   height="389.29733"
   viewBox="0 0 386.30099 389.29733"
   version="1.1"
   xml:space="preserve"
   style="clip-rule:evenodd;fill-rule:evenodd;stroke-linejoin:round;stroke-miterlimit:2"
   id="svg894"
   xmlns="http://www.w3.org/2000/svg"
   xmlns:svg="http://www.w3.org/2000/svg"
   xmlns:serif="http://www.serif.com/"><defs
   id="defs898" />
    
    
    
    
    
    <g
   id="nature-center"
   serif:id="nature center"
   transform="translate(-350.16504,-375.89999)">
        <g
   transform="matrix(3.13727,0,0,3.13727,-2254.29,-2189.43)"
   id="g267">
            <path
   d="m 942.52,906 0.59,19.984 -42.519,14.173 0.078,-16.419 4.055,4.608 17.717,-27.165 z"
   style="fill:#ffffff;stroke:#000000;stroke-width:2.66px"
   id="path265" />
        </g>
        <g
   transform="matrix(3.13727,0,0,3.13727,-2254.29,-2189.43)"
   id="g271">
            <path
   d="m 936.614,845.669 -3.543,21.26 18.898,41.339 -29.528,-7.087 -0.422,0.647 -34.079,-43.167 z"
   style="fill:#ffffff;stroke:#000000;stroke-width:2.66px"
   id="path269" />
        </g>
        <g
   transform="matrix(3.13727,0,0,3.13727,-2254.29,-2189.43)"
   id="g275">
            <path
   d="m 856.299,819.025 41.339,14.833 38.976,11.811 -48.425,12.926 -0.256,0.057 -0.925,-1.172 z"
   style="fill:#ffffff;stroke:#000000;stroke-width:2.66px"
   id="path273" />
        </g>
        <g
   transform="matrix(3.13727,0,0,3.13727,-2254.29,-2189.43)"
   id="g279">
            <path
   d="m 850.394,866.929 -18.898,-20.079 24.803,-27.825 30.709,38.455 0.925,1.172 z"
   style="fill:#ffffff;stroke:#000000;stroke-width:2.66px"
   id="path277" />
        </g>
        <g
   transform="matrix(3.13727,0,0,3.13727,-2254.29,-2189.43)"
   id="g283">
            <path
   d="m 846.773,877.559 -11.734,-15.354 v -11.59 l 15.355,16.314 z"
   style="fill:#ffffff;stroke:#000000;stroke-width:2.66px"
   id="path281" />
        </g>
        <g
   transform="matrix(3.13727,0,0,3.13727,-2254.29,-2189.43)"
   id="g287">
            <path
   d="m 900.591,940.157 -22.552,-25.948 -21.74,2.326 v -29.527 l 22.441,11.811 21.929,24.919 z"
   style="fill:#ffffff;stroke:#000000;stroke-width:2.66px"
   id="path285" />
        </g>
        <g
   transform="matrix(3.13727,0,0,3.13727,-2254.29,-2189.43)"
   id="g291">
            <path
   d="m 856.299,887.008 -16.535,11.132 10.63,-31.211 37.539,-8.277 34.086,43.176 -17.295,26.518 -25.984,-29.527 z"
   style="fill:#ffffff;stroke:#000000;stroke-width:2.66px"
   id="path289" />
        </g>
        <g
   transform="matrix(3.13727,0,0,3.13727,-2254.29,-2189.43)"
   id="g295">
            <path
   d="M 856.299,916.535 844.488,906 v -11.041 l 11.811,-7.951 z"
   style="fill:#ffffff;stroke:#000000;stroke-width:2.66px"
   id="path293" />
        </g>
        <g
   transform="matrix(3.13727,0,0,3.13727,-2254.29,-2189.43)"
   id="g299">
            <path
   d="m 839.764,898.14 10.63,-31.211 -18.898,-20.079 24.803,-27.825 41.339,14.833 38.976,11.811 -3.543,21.26 18.898,41.339 -29.528,-7.087 -17.717,27.165 -25.984,-29.527 -22.441,-11.811 z"
   style="fill:none;stroke:#000000;stroke-width:2.66px;stroke-linecap:round;stroke-miterlimit:1.5"
   id="path297" />
        </g>
        <g
   transform="matrix(3.13727,0,0,3.13727,-2254.29,-2189.43)"
   id="g303">
            <path
   d="m 942.52,906 0.59,19.984 -42.519,14.173 0.078,-16.419"
   style="fill:none;stroke:#000000;stroke-width:2.66px;stroke-linecap:round;stroke-miterlimit:1.5"
   id="path301" />
        </g>
        <g
   transform="matrix(2.72745,-0.59031,-0.59031,2.28696,-1330.24,-858.378)"
   id="g307">
            <path
   d="M 900.591,940.157 864.906,895.301"
   style="fill:none;stroke:#000000;stroke-width:4.32px;stroke-linecap:round;stroke-miterlimit:1.5"
   id="path305" />
        </g>
        <g
   transform="matrix(3.13727,0,0,3.13727,-2254.29,-2189.43)"
   id="g311">
            <path
   d="m 856.299,916.535 22.075,-2.362"
   style="fill:none;stroke:#000000;stroke-width:2.66px;stroke-linecap:round;stroke-miterlimit:1.5"
   id="path309" />
        </g>
        <g
   transform="matrix(3.13727,0,0,3.13727,-2254.29,-2189.43)"
   id="g315">
            <path
   d="M 856.299,916.535 V 887.008"
   style="fill:none;stroke:#000000;stroke-width:2.66px;stroke-linecap:round;stroke-miterlimit:1.5"
   id="path313" />
        </g>
        <g
   transform="matrix(3.13727,0,0,3.13727,-2254.29,-2189.43)"
   id="g319">
            <path
   d="m 878.008,898.819 v 15.354"
   style="fill:none;stroke:#000000;stroke-width:2.66px;stroke-linecap:round;stroke-miterlimit:1.5"
   id="path317" />
        </g>
        <g
   transform="matrix(2.77289,-0.474788,-0.474788,2.5186,-1490.31,-1193.94)"
   id="g323">
            <path
   d="M 922.388,901.292 871.383,837.121"
   style="fill:none;stroke:#000000;stroke-width:3.83px;stroke-linecap:round;stroke-miterlimit:1.5"
   id="path321" />
        </g>
        <g
   transform="matrix(3.13727,0,0,3.13727,-2254.29,-2189.43)"
   id="g327">
            <path
   d="M 887.008,857.48 856.299,819.025"
   style="fill:none;stroke:#000000;stroke-width:2.66px;stroke-linecap:round;stroke-miterlimit:1.5"
   id="path325" />
        </g>
        <g
   transform="matrix(3.13727,0,0,3.13727,-2254.29,-2189.43)"
   id="g331">
            <path
   d="m 887.94,858.661 48.674,-12.992"
   style="fill:none;stroke:#000000;stroke-width:2.66px;stroke-linecap:round;stroke-miterlimit:1.5"
   id="path329" />
        </g>
        <g
   transform="matrix(3.13727,0,0,3.13727,-2254.29,-2189.43)"
   id="g335">
            <path
   d="m 850.394,866.929 37.795,-8.334"
   style="fill:none;stroke:#000000;stroke-width:2.66px;stroke-linecap:round;stroke-miterlimit:1.5"
   id="path333" />
        </g>
        <g
   transform="matrix(3.13727,0,0,3.13727,-2254.29,-2189.43)"
   id="g339">
            <path
   d="M 856.299,916.535 844.488,906 v -11.041"
   style="fill:none;stroke:#000000;stroke-width:2.66px;stroke-linecap:round;stroke-miterlimit:1.5"
   id="path337" />
        </g>
        <g
   transform="matrix(3.13727,0,0,3.13727,-2254.29,-2189.43)"
   id="g343">
            <path
   d="m 846.773,877.559 -11.734,-15.354 v -11.59"
   style="fill:none;stroke:#000000;stroke-width:2.66px;stroke-linecap:round;stroke-miterlimit:1.5"
   id="path341" />
        </g>
    </g>
    
    
    
    
    
    
    
    
</svg>
