<?xml version="1.0" encoding="UTF-8" standalone="no"?>
<svg
   width="8691.7197"
   height="5041.1802"
   viewBox="0 0 8691.7197 5041.1802"
   version="1.1"
   xml:space="preserve"
   style="clip-rule:evenodd;fill-rule:evenodd;stroke-linecap:round;stroke-linejoin:round;stroke-miterlimit:1.5"
   id="svg637"
   xmlns="http://www.w3.org/2000/svg"
   xmlns:svg="http://www.w3.org/2000/svg"><defs
   id="defs641" />
    
    
    
    
    
    
    
    
    
    
    
    
    
    
    
    
    
    
    
    
    
    
    
    
    
    
    
    <g
   id="path"
   transform="translate(-1423.365,-2593.585)">
        <path
   d="m 9330.71,6438.36 -1851.02,-84.03 -1054.49,-47.24 -685.04,-71.51 -850.4,0.64 -566.92,113.15 -614.18,343.81 -396.97,86.35 -233.52,43.03 -432.5,-90.28 -259.84,-171.26 -259.85,-277.55 -118.11,-354.34 23.63,-401.57 165.35,-393.98 472.44,-385.55 801.16,-377.95 332.7,-7.11 377.95,48.19 425.2,24.58 c 0,0 320.56,-54.67 472.44,-136.53 151.88,-81.86 507.87,-233.01 507.87,-233.01 l 531.5,-306.54 448.82,-239.98 348.42,-118.1"
   style="fill:none;stroke:#000000;stroke-width:104.17px;stroke-miterlimit:4"
   id="path598" />
        <path
   d="m 3517.23,4370.08 -139.28,-118.11 -188.97,6.09 c 0,0 -80.71,12.71 -137.46,26.93 -56.76,14.22 -169.63,0 -169.63,0 l -94.49,-33.02"
   style="fill:none;stroke:#000000;stroke-width:104.17px;stroke-miterlimit:4"
   id="path600" />
        <path
   d="m 3717.89,3661.42 -103.72,122.41 -70.86,66.56"
   style="fill:none;stroke:#000000;stroke-width:104.17px;stroke-miterlimit:4"
   id="path602" />
        <path
   d="m 6661.42,3487.66 -354.33,-629.39 -295.15,-94.49 -440.21,236.22 -416.22,236.22 -265.75,141.73 -448.82,223.4 -118.1,36.45 -307.09,94.48 -307.09,-73.06 -165.35,-186.78 -23.63,-236.22 23.63,-236.22 -23.63,-189.02 -94.48,-71.96 -113.51,-93.35"
   style="fill:none;stroke:#000000;stroke-width:104.17px;stroke-miterlimit:4"
   id="path604" />
        <path
   d="m 4358.27,3635.67 165.35,49.37 153.54,27.34 153.55,71.45 177.16,83.96 165.36,79.43 99.27,92.15 89.7,118.11"
   style="fill:none;stroke:#000000;stroke-width:104.17px;stroke-miterlimit:4"
   id="path606" />
        <path
   d="m 3921.26,6047.24 188.98,14.73 h 141.73 l 188.97,32.52 h 165.36 l 188.98,47.24 118.11,18.22 94.48,76.27"
   style="fill:none;stroke:#000000;stroke-width:104.17px;stroke-miterlimit:4"
   id="path608" />
        <path
   d="m 3496.06,7582.68 47.25,-188.98 v -283.46 l 70.86,-141.74 84.68,-106.3 33.43,-169.02"
   style="fill:none;stroke:#000000;stroke-width:104.17px;stroke-miterlimit:4"
   id="path610" />
        <path
   d="m 5255.91,6235.94 -200.79,283.75"
   style="fill:none;stroke:#000000;stroke-width:104.17px;stroke-miterlimit:4"
   id="path612" />
        <path
   d="m 6448.82,6308.15 -226.33,306.02"
   style="fill:none;stroke:#000000;stroke-width:104.17px;stroke-miterlimit:4"
   id="path614" />
        <path
   d="m 7511.81,6349.37 -425.2,170.32"
   style="fill:none;stroke:#000000;stroke-width:104.17px;stroke-miterlimit:4"
   id="path616" />
        <path
   d="M 5811.02,6235.58 5763.78,6000"
   style="fill:none;stroke:#000000;stroke-width:104.17px;stroke-miterlimit:4"
   id="path618" />
        <path
   d="m 6897.64,4299.21 -850.4,307.09"
   style="fill:none;stroke:#000000;stroke-width:104.17px;stroke-miterlimit:4"
   id="path620" />
        <path
   d="M 5811.02,3936.77 5645.67,3818.68"
   style="fill:none;stroke:#000000;stroke-width:104.17px;stroke-miterlimit:4"
   id="path622" />
        <path
   d="m 6377.95,3620.73 -88.16,-77.42"
   style="fill:none;stroke:#000000;stroke-width:104.17px;stroke-miterlimit:4"
   id="path624" />
        <path
   d="m 5149.61,4263.02 -94.49,-111.17 -133.87,-17.99 -136.29,-0.43"
   style="fill:none;stroke:#000000;stroke-width:104.17px;stroke-miterlimit:4"
   id="path626" />
        <path
   d="m 2244.09,5055.12 h -118.11 l -141.73,70.86 -95.73,94.49 -82.68,118.11 -70.86,141.74 -34.99,165.35 0.8,153.54 20.28,140.55 -162.01,60.24 -83.61,23.62"
   style="fill:none;stroke:#000000;stroke-width:104.17px;stroke-miterlimit:4"
   id="path628" />
        <path
   d="m 2574.8,6693.18 -94.48,204.46"
   style="fill:none;stroke:#000000;stroke-width:104.17px;stroke-miterlimit:4"
   id="path630" />
        <path
   d="m 8574.8,5787.4 118.11,-472.44 212.6,-367.66 259.84,-316.28 141.74,-379.05 -23.62,-315.2 v -171.25 l 141.73,-222.21 354.33,-47.25 212.6,-23.62 70.87,-118.11"
   style="fill:none;stroke:#000000;stroke-width:104.17px;stroke-miterlimit:4"
   id="path632" />
        <path
   d="m 8800.62,5067.86 -107.71,-461.56 -47.24,-195.14 23.62,-100.14 188.98,-144.49 188.97,-174.4 236.23,-212.6"
   style="fill:none;stroke:#000000;stroke-width:104.17px;stroke-miterlimit:4"
   id="path634" />
    </g>
</svg>
