<?xml version="1.0" encoding="UTF-8" standalone="no"?>
<svg
   width="682.03467"
   height="411.03958"
   viewBox="0 0 682.03467 411.03958"
   version="1.1"
   xml:space="preserve"
   style="clip-rule:evenodd;fill-rule:evenodd;stroke-linecap:round;stroke-linejoin:round;stroke-miterlimit:1.5"
   id="svg637"
   xmlns="http://www.w3.org/2000/svg"
   xmlns:svg="http://www.w3.org/2000/svg"><defs
   id="defs641" />
    <g
   id="poorboy"
   transform="translate(-9651.0903,-4879.43)">
        <path
   d="m 9708.66,5173.23 v -94.49 l -47.24,-23.62 70.86,-150.71 188.98,-14.65 401.54,141.74 h -165.3 l -94.5,165.35 -46.2,-8.43 -1.1,91.72 z"
   style="fill:#ffffff"
   id="path2" />
        <path
   d="m 9708.66,5173.23 v -94.49 l -47.24,-23.62 70.86,-150.71 188.98,-14.65 401.54,141.74 h -165.3 l -94.5,165.35 -46.2,-8.43 -1.1,91.72 z"
   style="fill:none;stroke:#000000;stroke-width:20.66px"
   id="path4" />
        <path
   d="m 9708.66,5078.74 308.14,109.68"
   style="fill:none;stroke:#000000;stroke-width:20.66px"
   id="path6" />
        <path
   d="m 10015.7,5280.14 1.1,-91.72 46.2,8.43 94.5,-165.35 h 94.5 v 118.11 z"
   style="fill:#ffffff"
   id="path8" />
        <path
   d="M 10015.7,5280.14 10252,5149.61 V 5031.5 h -94.5 l -94.5,165.35 -46.2,-8.43 z"
   style="fill:none;stroke:#000000;stroke-width:20.66px"
   id="path10" />
        <path
   d="m 9732.28,4904.41 425.22,127.09"
   style="fill:none;stroke:#000000;stroke-width:20.66px"
   id="path12" />
    </g>
    
    
    
    
    
    
    
    
    
    
    
    
    
    
    
    
    
    
    
    
    
    
    
    
    
    
    
</svg>
