<?xml version="1.0" encoding="UTF-8" standalone="no"?>
<svg
   width="458.25571"
   height="422.23999"
   viewBox="0 0 458.25571 422.23999"
   version="1.1"
   xml:space="preserve"
   style="clip-rule:evenodd;fill-rule:evenodd;stroke-linecap:round;stroke-linejoin:round;stroke-miterlimit:1.5"
   id="svg383"
   xmlns="http://www.w3.org/2000/svg"
   xmlns:svg="http://www.w3.org/2000/svg"><defs
   id="defs387" />
    
    
    
    
    
    
    
    
    
    
    
    
    
    
    
    <g
   id="prichard"
   transform="translate(-2906.4039,-7052.66)">
        <path
   d="m 2976.38,7464.57 v -160 l 125.58,-95.57 134.26,76.71 v 178.86 z"
   style="fill:#ffffff"
   id="path275" />
        <path
   d="m 2976.38,7464.57 h 259.84 v -178.86 l -134.26,-76.71 -125.58,95.57 z"
   style="fill:none;stroke:#000000;stroke-width:20.66px"
   id="path277" />
        <path
   d="m 3236.22,7464.57 v -165.36 l 94.49,-106.3 2.71,122.13 z"
   style="fill:#ffffff"
   id="path279" />
        <path
   d="m 3236.22,7464.57 97.2,-149.53 -2.71,-122.13 -94.49,106.3 z"
   style="fill:none;stroke:#000000;stroke-width:20.66px"
   id="path281" />
        <path
   d="m 2916.73,7355 174.09,-261.14 98.16,-30.87 165.35,94.49 -94.49,141.73 -165.35,-94.49 z"
   style="fill:#ffffff"
   id="path283" />
        <path
   d="m 2916.73,7355 177.76,-150.28 165.35,94.49 94.49,-141.73 -165.35,-94.49 -98.16,30.87 z"
   style="fill:none;stroke:#000000;stroke-width:20.66px"
   id="path285" />
        <path
   d="m 3094.49,7204.72 94.49,-141.73"
   style="fill:none;stroke:#000000;stroke-width:20.66px"
   id="path287" />
    </g>
    
    
    
    
    
</svg>
