<?xml version="1.0" encoding="UTF-8" standalone="no"?>
<svg
   width="672.09619"
   height="587.58936"
   viewBox="0 0 672.09619 587.58936"
   version="1.1"
   xml:space="preserve"
   style="clip-rule:evenodd;fill-rule:evenodd;stroke-linecap:round;stroke-linejoin:round;stroke-miterlimit:1.5"
   id="svg383"
   xmlns="http://www.w3.org/2000/svg"
   xmlns:svg="http://www.w3.org/2000/svg"><defs
   id="defs387" />
    
    
    
    
    <g
   id="ricks"
   transform="translate(-1666.8334,-6651.09)">
        <path
   d="m 2149.61,6897.64 141.73,-88.54 v 99.35 l -70.87,36.43 z"
   style="fill:#ffffff"
   id="path76" />
        <path
   d="m 2149.61,6897.64 -118.11,-70.87 212.59,-165.35 84.51,124.41 z"
   style="fill:#ffffff"
   id="path78" />
        <path
   d="m 2031.5,6826.77 141.73,118.11 -70.87,118.11 -70.86,-47.24 z"
   style="fill:#ffffff"
   id="path80" />
        <path
   d="m 2244.09,6661.42 -425.19,330.71 -141.74,47.24 425.2,-377.95 z"
   style="fill:#ffffff"
   id="path82" />
        <path
   d="m 1818.9,6992.13 212.6,-165.36 v 188.98 l -141.74,117.08 -23.62,-44.53 z"
   style="fill:#ffffff"
   id="path84" />
        <path
   d="m 2244.09,6968.5 -70.86,-23.62 -141.73,-118.11 118.11,70.87 z"
   style="fill:#ffffff"
   id="path86" />
        <path
   d="m 1700.79,7031.5 118.11,-39.37 47.24,96.17 v 140.05 l -166.15,-84.46 z"
   style="fill:#ffffff"
   id="path88" />
        <path
   d="m 2102.36,7157.48 -70.86,-42.08 v -99.65 l 70.86,47.24 z"
   style="fill:#ffffff"
   id="path90" />
        <path
   d="m 2102.36,7157.48 v -94.49 l 70.87,-118.11 70.86,23.62 v 94.49 z"
   style="fill:#ffffff"
   id="path92" />
        <path
   d="M 1866.14,7228.35 V 7088.3 l 23.62,44.53 141.74,-117.08 v 99.65 z"
   style="fill:#ffffff"
   id="path94" />
        <path
   d="m 2102.36,7062.99 v 94.49 l -70.86,-42.08 v -99.65 z"
   style="fill:none;stroke:#000000;stroke-width:20.66px"
   id="path96" />
        <path
   d="m 2102.36,7157.48 141.73,-94.49 v -94.49 l -70.86,-23.62 -70.87,118.11 z"
   style="fill:none;stroke:#000000;stroke-width:20.66px"
   id="path98" />
        <path
   d="m 2220.47,6944.88 70.87,-36.43 v -99.35 l -141.73,88.54 70.86,47.24"
   style="fill:none;stroke:#000000;stroke-width:20.66px"
   id="path100" />
        <path
   d="m 1677.16,7039.37 141.74,-47.24 69.62,141.73 142.98,-118.11 70.86,47.24 70.87,-118.11 70.86,23.62 -94.48,-70.86 178.99,-111.81 -84.51,-124.41 h -141.73 z"
   style="fill:none;stroke:#000000;stroke-width:20.66px"
   id="path102" />
        <path
   d="m 1700.79,7031.5 -0.8,112.39 166.15,84.46 V 7088.3 l -47.24,-96.17 z"
   style="fill:none;stroke:#000000;stroke-width:20.66px"
   id="path104" />
        <path
   d="M 1866.14,7228.35 2031.5,7115.4 v -99.65 l -141.74,117.08 -23.62,-44.53 z"
   style="fill:none;stroke:#000000;stroke-width:20.66px"
   id="path106" />
        <path
   d="m 2031.5,7015.75 v -188.98 l 118.11,70.87"
   style="fill:none;stroke:#000000;stroke-width:20.66px"
   id="path108" />
        <path
   d="m 1818.9,6992.13 425.19,-330.71"
   style="fill:none;stroke:#000000;stroke-width:20.66px"
   id="path110" />
        <path
   d="m 2031.5,6826.77 141.73,118.11"
   style="fill:none;stroke:#000000;stroke-width:20.66px"
   id="path112" />
    </g>
    
    
    
    
    
    
    
    
    
    
    
    
    
    
    
    
</svg>
