<?xml version="1.0" encoding="UTF-8" standalone="no"?>
<svg
   width="275.22992"
   height="311.26929"
   viewBox="0 0 275.22992 311.26929"
   version="1.1"
   xml:space="preserve"
   style="clip-rule:evenodd;fill-rule:evenodd;stroke-linejoin:round;stroke-miterlimit:2"
   id="svg894"
   xmlns="http://www.w3.org/2000/svg"
   xmlns:svg="http://www.w3.org/2000/svg"><defs
   id="defs898" />
    
    
    
    
    
    
    
    
    
    
    <g
   id="rifle-range"
   transform="translate(-2397.2376,-869.889)">
        <g
   transform="matrix(6.10811,0,0,6.10811,-13426.8,-6361.93)"
   id="g576">
            <path
   d="m 2604.33,1234.25 v -13.58 l 3.54,4.13 23.33,-25.75 v 5.38 z"
   style="fill:#ffffff;stroke:#000000;stroke-width:1.36px"
   id="path574" />
        </g>
        <g
   transform="matrix(6.10811,0,0,6.10811,-13426.8,-6361.93)"
   id="g580">
            <path
   d="m 2595.12,1220.08 5.67,-3.54 3.54,4.13 v 13.58 l -9.45,-2.36 z"
   style="fill:#ffffff;stroke:#000000;stroke-width:1.36px"
   id="path578" />
        </g>
        <g
   transform="matrix(6.10811,0,0,6.10811,-13426.8,-6361.93)"
   id="g584">
            <path
   d="m 2626.77,1184.65 -25.98,31.89 -9.45,5.9 25.98,-33.07 z"
   style="fill:#ffffff;stroke:#000000;stroke-width:1.36px"
   id="path582" />
        </g>
        <g
   transform="matrix(6.10811,0,0,6.10811,-13426.8,-6361.93)"
   id="g588">
            <path
   d="m 2607.87,1224.8 -7.08,-8.26 25.98,-31.89 8.27,10.16 z"
   style="fill:#ffffff;stroke:#000000;stroke-width:1.36px"
   id="path586" />
        </g>
        <g
   transform="matrix(6.10811,0,0,6.10811,-13426.8,-6361.93)"
   id="g592">
            <path
   d="m 2591.34,1222.44 9.45,-5.9 7.08,8.26 27.17,-29.99 -8.27,-10.16 -9.45,4.72 z"
   style="fill:none;stroke:#000000;stroke-width:1.36px;stroke-linecap:round;stroke-miterlimit:1.5"
   id="path590" />
        </g>
        <g
   transform="matrix(6.10811,0,0,6.10811,-13426.8,-6361.93)"
   id="g596">
            <path
   d="m 2600.79,1216.54 25.98,-31.89"
   style="fill:none;stroke:#000000;stroke-width:1.36px;stroke-linecap:round;stroke-miterlimit:1.5"
   id="path594" />
        </g>
        <g
   transform="matrix(6.10811,0,0,6.10811,-13426.8,-6361.93)"
   id="g600">
            <path
   d="m 2595.12,1220.08 -0.24,11.81 9.45,2.36 v -13.58"
   style="fill:none;stroke:#000000;stroke-width:1.36px;stroke-linecap:round;stroke-miterlimit:1.5"
   id="path598" />
        </g>
        <g
   transform="matrix(6.10811,0,0,6.10811,-13426.8,-6361.93)"
   id="g604">
            <path
   d="m 2604.33,1234.25 26.87,-29.82 v -5.38"
   style="fill:none;stroke:#000000;stroke-width:1.36px;stroke-linecap:round;stroke-miterlimit:1.5"
   id="path602" />
        </g>
    </g>
    
    
    
</svg>
