<?xml version="1.0" encoding="UTF-8" standalone="no"?>
<svg
   width="469.47897"
   height="473.1597"
   viewBox="0 0 469.47897 473.1597"
   version="1.1"
   xml:space="preserve"
   style="clip-rule:evenodd;fill-rule:evenodd;stroke-linecap:round;stroke-linejoin:round;stroke-miterlimit:1.5"
   id="svg383"
   xmlns="http://www.w3.org/2000/svg"
   xmlns:svg="http://www.w3.org/2000/svg"><defs
   id="defs387" />
    
    
    
    
    
    
    
    
    
    
    <g
   id="rose"
   transform="translate(-4584.1607,-6505.69)">
        <path
   d="m 4665.35,6809.59 106.3,-77.31 70.87,86.62 -7.89,149.62 -181.09,-47.26 z"
   style="fill:#ffffff"
   id="path192" />
        <path
   d="m 4665.35,6809.59 -11.81,111.67 181.09,47.26 7.89,-149.62 -70.87,-86.62 z"
   style="fill:none;stroke:#000000;stroke-width:20.66px"
   id="path194" />
        <path
   d="m 4834.63,6968.52 7.89,-149.62 35.43,43.3 129.92,-185.6 -11.81,79.31 z"
   style="fill:#ffffff"
   id="path196" />
        <path
   d="m 4834.63,6968.52 161.43,-212.61 11.81,-79.31 -129.92,185.6 -35.43,-43.3 z"
   style="fill:none;stroke:#000000;stroke-width:20.66px"
   id="path198" />
        <path
   d="m 4594.49,6814.96 177.27,-240.03 165.25,-58.91 106.3,109.96 -165.36,236.22 -106.3,-129.92 -129.92,94.49 z"
   style="fill:#ffffff"
   id="path200" />
        <path
   d="m 4594.49,6814.96 47.24,11.81 129.92,-94.49 106.3,129.92 165.36,-236.22 -106.3,-109.96 -165.25,58.91 z"
   style="fill:none;stroke:#000000;stroke-width:20.66px"
   id="path202" />
        <path
   d="m 4771.65,6732.28 165.36,-216.26"
   style="fill:none;stroke:#000000;stroke-width:20.66px"
   id="path204" />
    </g>
    
    
    
    
    
    
    
    
    
    
</svg>
