<?xml version="1.0" encoding="UTF-8" standalone="no"?>
<svg
   width="420.59918"
   height="598.21997"
   viewBox="0 0 420.59918 598.21997"
   version="1.1"
   xml:space="preserve"
   style="clip-rule:evenodd;fill-rule:evenodd;stroke-linecap:round;stroke-linejoin:round;stroke-miterlimit:1.5"
   id="svg383"
   xmlns="http://www.w3.org/2000/svg"
   xmlns:svg="http://www.w3.org/2000/svg"><defs
   id="defs387" />
    
    
    
    
    
    
    
    
    
    
    
    
    
    
    
    
    
    <g
   id="sgh"
   transform="translate(-1065.1802,-5351.87)">
        <path
   d="m 1204.72,5834.65 -129.21,-372.84 152.84,-99.61 141.73,70.87 105.37,370.74 -128.99,-63.65 z"
   style="fill:#ffffff"
   id="path307" />
        <path
   d="m 1204.72,5834.65 141.74,-94.49 128.99,63.65 -105.37,-370.74 -141.73,-70.87 -152.84,99.61 z"
   style="fill:none;stroke:#000000;stroke-width:20.66px"
   id="path309" />
        <path
   d="m 1098.3,5527.56 106.42,307.09 23.63,-15.75 v 120.86 L 1098.3,5669.29 Z"
   style="fill:#ffffff"
   id="path311" />
        <path
   d="m 1098.3,5527.56 v 141.73 l 130.05,270.47 V 5818.9 l -23.63,15.75 z"
   style="fill:none;stroke:#000000;stroke-width:20.66px"
   id="path313" />
        <path
   d="M 1228.35,5939.76 V 5818.9 l 118.11,-78.74 87.81,43.33 v 156.27 z"
   style="fill:#ffffff"
   id="path315" />
        <path
   d="m 1228.35,5939.76 h 205.92 v -156.27 l -87.81,-43.33 -118.11,78.74 z"
   style="fill:none;stroke:#000000;stroke-width:20.66px"
   id="path317" />
        <path
   d="M 1346.46,5740.16 1228.35,5362.2"
   style="fill:none;stroke:#000000;stroke-width:20.66px"
   id="path319" />
    </g>
    
    
    
</svg>
