<?xml version="1.0" encoding="UTF-8" standalone="no"?>
<svg
   width="1389.4502"
   height="996.98956"
   viewBox="0 0 1389.4502 996.98956"
   version="1.1"
   xml:space="preserve"
   style="clip-rule:evenodd;fill-rule:evenodd;stroke-linecap:round;stroke-linejoin:round;stroke-miterlimit:1.5"
   id="svg637"
   xmlns="http://www.w3.org/2000/svg"
   xmlns:svg="http://www.w3.org/2000/svg"><defs
   id="defs641" />
    
    
    
    
    
    
    
    
    
    
    
    
    
    
    
    
    
    
    
    
    
    
    
    
    <g
   id="showerhouse"
   transform="matrix(1.73955,0.180165,-0.180165,1.73955,-6569.3483,-5800.1731)">
        <path
   d="m 4346.46,3382.43 -118.11,-169.83 -118.11,-47.25 212.6,-118.11 -23.63,-35.51 94.49,-82.6 94.49,-23.62 23.62,47.25 141.73,-94.49 118.11,70.86 118.11,165.36 -94.48,47.24 23.62,50.98 h -188.98 l -118.11,161.62 -47.24,-28.57 z"
   style="fill:#ffffff"
   id="path521" />
        <path
   d="m 4346.46,3382.43 -118.11,-169.83 -118.11,-47.25 212.6,-118.11 -23.63,-35.51 94.49,-82.6 94.49,-23.62 23.62,47.25 141.73,-94.49 118.11,70.86 118.11,165.36 -94.48,47.24 23.62,50.98 h -188.98 l -118.11,161.62 -47.24,-28.57 z"
   style="fill:none;stroke:#000000;stroke-width:11.82px"
   id="path523" />
        <path
   d="M 4322.84,3435.42 4133.86,3283.47 V 3174.8 l 94.49,37.8 94.49,135.86 z"
   style="fill:#ffffff"
   id="path525" />
        <path
   d="M 4322.84,3435.42 4133.86,3283.47 V 3174.8 l 94.49,37.8 94.49,135.86 z"
   style="fill:none;stroke:#000000;stroke-width:11.82px"
   id="path527" />
        <path
   d="m 4467.46,3382.43 -2.89,-56.67 35.43,27.46 v 79.53 z"
   style="fill:#ffffff"
   id="path529" />
        <path
   d="m 4467.46,3382.43 32.54,50.32 v -79.53 l -35.43,-27.46 z"
   style="fill:none;stroke:#000000;stroke-width:11.82px"
   id="path531" />
        <path
   d="m 4500,3435.42 v -88.23 l 11.81,7.14 118.11,-161.62 h 188.98 v 90.76 z"
   style="fill:#ffffff"
   id="path533" />
        <path
   d="m 4500,3435.42 318.9,-151.95 v -90.76 h -188.98 l -118.11,161.62 -11.81,-7.14 z"
   style="fill:none;stroke:#000000;stroke-width:11.82px"
   id="path535" />
        <path
   d="m 4818.9,3177.16 -23.62,-35.43 70.86,-35.43 v 35.43 z"
   style="fill:#ffffff"
   id="path537" />
        <path
   d="m 4866.14,3106.3 v 35.43 l -47.24,35.43"
   style="fill:none;stroke:#000000;stroke-width:11.82px"
   id="path539" />
        <path
   d="m 4818.9,3177.16 -23.62,-35.43 70.86,-35.43"
   style="fill:none;stroke:#000000;stroke-width:11.82px"
   id="path541" />
        <path
   d="m 4228.35,3212.6 543.3,-283.47"
   style="fill:none;stroke:#000000;stroke-width:11.82px"
   id="path543" />
        <path
   d="m 4322.84,3432.75 v -84.29 l 23.62,33.97 118.11,-56.67 2.89,56.67 z"
   style="fill:#ffffff"
   id="path545" />
        <path
   d="m 4322.84,3432.75 144.62,-50.32 -2.89,-56.67 -118.11,56.67 -23.62,-33.97 z"
   style="fill:none;stroke:#000000;stroke-width:11.82px"
   id="path547" />
        <g
   transform="matrix(0.700505,-0.0725514,0.0725514,0.700505,443.644,176.75)"
   id="g551">
            <path
   d="m 5218.47,5035.82 250.03,-163.73 242.85,-53.19"
   style="fill:none;stroke:#000000;stroke-width:16.78px"
   id="path549" />
        </g>
        <g
   transform="matrix(0.700505,-0.0725514,0.0725514,0.700505,443.644,176.75)"
   id="g555">
            <path
   d="m 5059.03,4621.71 122.23,-157.14 158.5,51.33"
   style="fill:none;stroke:#000000;stroke-width:16.78px"
   id="path553" />
        </g>
    </g>
    
    
    
</svg>
