<?xml version="1.0" encoding="UTF-8" standalone="no"?>
<svg
   width="315.92828"
   height="436.53973"
   viewBox="0 0 315.92828 436.53973"
   version="1.1"
   xml:space="preserve"
   style="clip-rule:evenodd;fill-rule:evenodd;stroke-linecap:round;stroke-linejoin:round;stroke-miterlimit:1.5"
   id="svg383"
   xmlns="http://www.w3.org/2000/svg"
   xmlns:svg="http://www.w3.org/2000/svg"><defs
   id="defs387" />
    
    
    
    
    
    
    
    
    <g
   id="sohlberg"
   transform="translate(-5847.9415,-6438.49)">
        <path
   d="m 6026.72,6864.7 v -108.79 l 115.01,-200.89 5.07,83.35 z"
   style="fill:#ffffff"
   id="path162" />
        <path
   d="m 6026.72,6864.7 120.08,-226.33 -5.07,-83.35 -115.01,200.89 z"
   style="fill:none;stroke:#000000;stroke-width:20.66px"
   id="path164" />
        <path
   d="m 5858.27,6732.28 153.54,-271.65 82.68,-11.81 59.05,82.68 -112.99,225.06 -64.17,-83.33 z"
   style="fill:#ffffff"
   id="path166" />
        <path
   d="m 5858.27,6732.28 118.11,-59.05 56.02,72.75 121.14,-214.48 -59.05,-82.68 -82.68,11.81 z"
   style="fill:none;stroke:#000000;stroke-width:20.66px"
   id="path168" />
        <path
   d="m 5905.51,6708.66 70.87,-35.43 54.57,70.86 -4.23,120.61 -128.88,-30.18 z"
   style="fill:#ffffff"
   id="path170" />
        <path
   d="m 5905.51,6708.66 -7.67,125.86 128.88,30.18 4.23,-120.61 -54.57,-70.86 z"
   style="fill:none;stroke:#000000;stroke-width:20.66px"
   id="path172" />
        <path
   d="m 5976.38,6673.23 118.11,-224.41"
   style="fill:none;stroke:#000000;stroke-width:20.66px"
   id="path174" />
    </g>
    
    
    
    
    
    
    
    
    
    
    
    
</svg>
