<?xml version="1.0" encoding="UTF-8" standalone="no"?>
<svg
   width="503.11609"
   height="421.64673"
   viewBox="0 0 503.11609 421.64673"
   version="1.1"
   xml:space="preserve"
   style="clip-rule:evenodd;fill-rule:evenodd;stroke-linejoin:round;stroke-miterlimit:2"
   id="svg894"
   xmlns="http://www.w3.org/2000/svg"
   xmlns:svg="http://www.w3.org/2000/svg"
   xmlns:serif="http://www.serif.com/"><defs
   id="defs898" />
    
    <g
   id="swim-dock"
   serif:id="swim dock"
   transform="translate(-2275.3407,-104.96201)">
        <g
   transform="matrix(3.44801,0,0,3.44801,-4566.27,-1788.63)"
   id="g113">
            <path
   d="m 2113.58,628.346 -11.81,-13.582 v -7.087 l 11.81,14.173 z"
   style="fill:#ffffff"
   id="path103" />
            <path
   d="m 2042.27,637.795 -3.69,-4.724 63.19,-25.394 v 7.087 z"
   style="fill:#ffffff"
   id="path105" />
            <path
   d="m 2039.17,670.866 -29.52,-39.567 -23.04,-27.165 v -6.345 l 26.58,29.967 26.57,37.205 17.72,-7.678 1.18,5.315 z"
   style="fill:#ffffff"
   id="path107" />
            <path
   d="m 2113.58,628.346 v -6.496 l 14.32,-6.874 1.63,5.103 z"
   style="fill:#ffffff"
   id="path109" />
            <path
   d="m 2057.48,555.709 31.3,34.252 -5.31,2.27 -27.17,-30.617 z"
   style="fill:#ffffff"
   id="path111" />
        </g>
        <path
   d="m 2279.53,267.958 50.9,-26.471 95.71,93.666 209.73,-89.594 -107.92,-118.101 40.72,-18.326 111.99,118.101 91.64,103.848 -50.91,24.434 -40.73,-48.869 -217.87,87.558 65.16,83.485 -61.09,26.471 -91.63,-128.282 z"
   style="fill:#ffffff"
   id="path115" />
        <g
   transform="matrix(3.44801,0,0,3.44801,-4566.27,-1788.63)"
   id="g119">
            <path
   d="m 1985.43,596.457 27.76,31.299 26.57,37.205 17.72,-7.678 -18.9,-24.212 63.19,-25.394 11.81,14.173 14.77,-7.086 -26.58,-30.118 -32.48,-34.252 -11.81,5.315 31.3,34.252 -60.83,25.984 -27.75,-27.165 z"
   style="fill:none;stroke:#000000;stroke-width:2.42px;stroke-linecap:round;stroke-miterlimit:1.5"
   id="path117" />
        </g>
        <g
   transform="matrix(3.44801,0,0,3.44801,-4566.27,-1788.63)"
   id="g123">
            <path
   d="m 2058.66,602.827 12.25,17.252"
   style="fill:none;stroke:#000000;stroke-width:1.21px;stroke-linecap:round;stroke-miterlimit:1.5"
   id="path121" />
        </g>
        <g
   transform="matrix(3.44801,0,0,3.44801,-4566.27,-1788.63)"
   id="g127">
            <path
   d="m 1986.61,596.457 v 7.677 l 23.04,27.165 29.52,39.567 v -4.724"
   style="fill:none;stroke:#000000;stroke-width:1.21px;stroke-linecap:round;stroke-miterlimit:1.5"
   id="path125" />
        </g>
        <g
   transform="matrix(3.44801,0,0,3.44801,-4566.27,-1788.63)"
   id="g131">
            <path
   d="m 2039.17,670.866 19.49,-8.268 -1.18,-5.315"
   style="fill:none;stroke:#000000;stroke-width:1.21px;stroke-linecap:round;stroke-miterlimit:1.5"
   id="path129" />
        </g>
        <g
   transform="matrix(3.27001,0.233779,0.233779,3.14098,-4356.3,-2064.39)"
   id="g135">
            <path
   d="m 2014.59,628.346 -3.6,4.725"
   style="fill:none;stroke:#000000;stroke-width:1.21px;stroke-linecap:round;stroke-miterlimit:1.5"
   id="path133" />
        </g>
        <g
   transform="matrix(3.44801,0,0,3.44801,-4566.27,-1788.63)"
   id="g139">
            <path
   d="m 2042.27,637.795 59.5,-23.031 v -7.087"
   style="fill:none;stroke:#000000;stroke-width:1.21px;stroke-linecap:round;stroke-miterlimit:1.5"
   id="path137" />
        </g>
        <g
   transform="matrix(3.44801,0,0,3.44801,-4566.27,-1788.63)"
   id="g143">
            <path
   d="m 2101.77,614.764 11.81,13.582 v -6.496"
   style="fill:none;stroke:#000000;stroke-width:1.21px;stroke-linecap:round;stroke-miterlimit:1.5"
   id="path141" />
        </g>
        <g
   transform="matrix(3.44801,0,0,3.44801,-4566.27,-1788.63)"
   id="g147">
            <path
   d="m 2113.58,628.346 15.95,-8.267 -1.63,-5.103"
   style="fill:none;stroke:#000000;stroke-width:1.21px;stroke-linecap:round;stroke-miterlimit:1.5"
   id="path145" />
        </g>
        <g
   transform="matrix(3.44801,0,0,3.44801,-4566.27,-1788.63)"
   id="g151">
            <path
   d="m 2057.48,555.709 -1.18,5.905 27.17,30.617"
   style="fill:none;stroke:#000000;stroke-width:1.21px;stroke-linecap:round;stroke-miterlimit:1.5"
   id="path149" />
        </g>
    </g>
    
    
    
    
    
    
    
    
    
    
    
    
</svg>
