<?xml version="1.0" encoding="UTF-8" standalone="no"?>
<svg
   width="210.88863"
   height="128.13394"
   viewBox="0 0 210.88863 128.13394"
   version="1.1"
   xml:space="preserve"
   style="clip-rule:evenodd;fill-rule:evenodd;stroke-linejoin:round;stroke-miterlimit:2"
   id="svg894"
   xmlns="http://www.w3.org/2000/svg"
   xmlns:svg="http://www.w3.org/2000/svg"><defs
   id="defs898" />
    
    
    
    
    
    
    
    
    
    <g
   id="carpark"
   transform="translate(-1642.6,-801.51134)">
        <g
   transform="matrix(4.83099,0,0,4.83099,-7211.64,-3468.05)"
   id="g531">
            <path
   d="m 1866.14,885.827 -23.32,8.267 -9.16,-0.59 23.62,-8.858 z"
   style="fill:#ffffff;stroke:#000000;stroke-width:1.72px"
   id="path529" />
        </g>
        <g
   transform="matrix(4.83099,0,0,4.83099,-7211.64,-3468.05)"
   id="g535">
            <path
   d="m 1842.82,894.094 23.32,-8.267 9.45,5.905 -31.3,10.04 z"
   style="fill:#ffffff;stroke:#000000;stroke-width:1.72px"
   id="path533" />
        </g>
        <g
   transform="matrix(4.83099,0,0,4.83099,-7211.64,-3468.05)"
   id="g539">
            <path
   d="m 1847.33,909.449 v -8.652 l 22.95,-7.36 v 11.707 z"
   style="fill:#ffffff;stroke:#000000;stroke-width:1.72px"
   id="path537" />
        </g>
        <g
   transform="matrix(4.83099,0,0,4.83099,-7211.64,-3468.05)"
   id="g543">
            <path
   d="m 1837.8,893.771 5.02,0.323 1.47,7.678 3.04,-0.975 v 8.652 l -9.53,-5.906 z"
   style="fill:#ffffff;stroke:#000000;stroke-width:1.72px"
   id="path541" />
        </g>
        <g
   transform="matrix(4.83099,0,0,4.83099,-7191.67,-3490.87)"
   id="g547">
            <path
   d="m 1829.53,898.228 9.15,0.591 1.48,7.677 31.3,-10.039 -9.45,-5.906 -8.86,-1.181 z"
   style="fill:none;stroke:#000000;stroke-width:1.72px;stroke-linecap:round;stroke-miterlimit:1.5"
   id="path545" />
        </g>
        <g
   transform="matrix(4.83099,0,0,4.83099,-7191.67,-3490.87)"
   id="g551">
            <path
   d="m 1833.66,898.495 v 9.773"
   style="fill:none;stroke:#000000;stroke-width:1.72px;stroke-linecap:round;stroke-miterlimit:1.5"
   id="path549" />
        </g>
        <g
   transform="matrix(4.83099,0,0,4.83099,-7191.67,-3490.87)"
   id="g555">
            <path
   d="m 1843.19,905.522 v 8.651"
   style="fill:none;stroke:#000000;stroke-width:1.72px;stroke-linecap:round;stroke-miterlimit:1.5"
   id="path553" />
        </g>
        <g
   transform="matrix(4.83099,0,0,3.93,-7191.67,-2681.04)"
   id="g559">
            <path
   d="m 1866.14,898.011 v 14.391"
   style="fill:none;stroke:#000000;stroke-width:1.89px;stroke-linecap:round;stroke-miterlimit:1.5"
   id="path557" />
        </g>
        <g
   transform="matrix(4.83099,0,0,4.83099,-7191.67,-3490.87)"
   id="g563">
            <path
   d="m 1838.68,898.819 23.33,-8.268"
   style="fill:none;stroke:#000000;stroke-width:1.72px;stroke-linecap:round;stroke-miterlimit:1.5"
   id="path561" />
        </g>
        <g
   transform="matrix(4.83099,0,0,4.83099,-7211.64,-3468.05)"
   id="g567">
            <path
   d="m 1847.33,909.449 22.95,-4.305"
   style="fill:none;stroke:#000000;stroke-width:1.72px;stroke-linecap:round;stroke-miterlimit:1.5"
   id="path565" />
        </g>
        <g
   transform="matrix(4.83099,0,0,4.83099,-7211.64,-3468.05)"
   id="g571">
            <path
   d="m 1837.8,903.543 9.53,5.906"
   style="fill:none;stroke:#000000;stroke-width:1.72px;stroke-linecap:round;stroke-miterlimit:1.5"
   id="path569" />
        </g>
    </g>
    
    
    
    
</svg>
