<?xml version="1.0" encoding="UTF-8" standalone="no"?>
<svg
   width="277.60632"
   height="229.39859"
   viewBox="0 0 277.60632 229.39859"
   version="1.1"
   xml:space="preserve"
   style="clip-rule:evenodd;fill-rule:evenodd;stroke-linejoin:round;stroke-miterlimit:2"
   id="svg894"
   xmlns="http://www.w3.org/2000/svg"
   xmlns:svg="http://www.w3.org/2000/svg"><defs
   id="defs898" />
    <g
   id="waterfront"
   transform="translate(-1745.0474,-448.1978)">
        <g
   transform="matrix(2.67718,0,0,2.63962,-3398.98,-744.351)"
   id="g4">
            <path
   d="m 1962.2,533.858 55.42,-23.5 3.84,4.012 -55.98,22.759 z"
   style="fill:#ffffff;stroke:#000000;stroke-width:3.13px"
   id="path2" />
        </g>
        <g
   transform="matrix(2.67718,0,0,2.63962,-3398.98,-744.351)"
   id="g8">
            <path
   d="m 2017.62,510.358 -55.42,23.5 -3.34,-3.346 55.98,-23.072 z"
   style="fill:#ffffff;stroke:#000000;stroke-width:3.13px"
   id="path6" />
        </g>
        <g
   transform="matrix(2.4,0,0,2.4,-2825.91,-633.307)"
   id="g12">
            <path
   d="m 1938.19,529.134 -11.55,-11.909 28.08,-10.532 1.19,-0.567 7.08,12.065 z"
   style="fill:#ffffff;stroke:#000000;stroke-width:3.47px"
   id="path10" />
        </g>
        <g
   transform="matrix(2.67718,0,0,2.63962,-3398.98,-744.351)"
   id="g16">
            <path
   d="m 2011.33,503.764 -55.42,23.795 -4.33,-4.331 55.11,-24.316 z"
   style="fill:#ffffff;stroke:#000000;stroke-width:3.13px"
   id="path14" />
        </g>
        <g
   transform="matrix(2.67718,0,0,2.63962,-3398.98,-744.351)"
   id="g20">
            <path
   d="m 2014.84,507.44 -55.98,23.072 -2.95,-2.953 55.42,-23.795 z"
   style="fill:#ffffff;stroke:#000000;stroke-width:3.13px"
   id="path18" />
        </g>
        <g
   transform="matrix(2.4,0,0,2.4,-2825.91,-633.307)"
   id="g24">
            <path
   d="m 1962.99,518.191 -7.08,-12.065 28.34,-13.606 1.18,-0.591 8.27,12.714 z"
   style="fill:#ffffff;stroke:#000000;stroke-width:3.47px"
   id="path22" />
        </g>
        <g
   transform="matrix(2.4,0,0,2.4,-2825.91,-633.307)"
   id="g28">
            <path
   d="m 1926.38,517.135 -14.18,-8.08 v -15.354 h 3.55 l 5.9,11.811 5.13,-2.362 z"
   style="fill:#ffffff;stroke:#000000;stroke-width:3.47px"
   id="path26" />
        </g>
        <g
   transform="matrix(2.4,0,0,2.4,-2825.91,-633.307)"
   id="g32">
            <path
   d="m 1954.72,506.693 -28.14,10.554 -0.2,-0.112 0.4,-13.985 27.94,-12.868 z"
   style="fill:#ffffff;stroke:#000000;stroke-width:3.47px"
   id="path30" />
        </g>
        <g
   transform="matrix(2.4,0,0,2.4,-2825.91,-633.307)"
   id="g36">
            <path
   d="m 1921.65,505.512 -5.9,-11.811 h -9.45 l 87.4,-41.339 h 10.63 l 7.09,11.811 z"
   style="fill:#ffffff;stroke:#000000;stroke-width:3.47px"
   id="path34" />
        </g>
        <g
   transform="matrix(2.4,0,0,2.4,-2825.91,-633.307)"
   id="g40">
            <path
   d="m 1984.25,492.52 -29.53,14.173 v -16.411 l 29.53,-13.598 z"
   style="fill:#ffffff;stroke:#000000;stroke-width:3.47px"
   id="path38" />
        </g>
        <g
   transform="matrix(2.4,0,0,2.4,-2825.91,-633.307)"
   id="g44">
            <path
   d="m 2007.87,465.805 v 14.904 l -23.62,11.811 v -15.836 z"
   style="fill:#ffffff;stroke:#000000;stroke-width:3.47px"
   id="path42" />
        </g>
        <g
   transform="matrix(2.4,0,0,2.4,-2825.91,-633.307)"
   id="g48">
            <path
   d="m 1993.7,504.643 -8.27,-12.714 22.44,-11.22 10.63,12.992 z"
   style="fill:#ffffff;stroke:#000000;stroke-width:3.47px"
   id="path46" />
        </g>
        <g
   transform="matrix(2.4,0,0,2.4,-2825.91,-633.307)"
   id="g52">
            <path
   d="m 1906.3,493.701 h 9.45 l 5.9,11.811 89.77,-41.339 -7.09,-11.811 h -10.63 z"
   style="fill:none;stroke:#000000;stroke-width:3.47px;stroke-linecap:round;stroke-miterlimit:1.5"
   id="path50" />
        </g>
        <g
   transform="matrix(2.4,0,0,2.4,-2825.91,-633.307)"
   id="g56">
            <path
   d="m 1926.78,503.15 v 13.705"
   style="fill:none;stroke:#000000;stroke-width:3.47px;stroke-linecap:round;stroke-miterlimit:1.5"
   id="path54" />
        </g>
        <g
   transform="matrix(2.4,0,0,2.4,-2825.91,-633.307)"
   id="g60">
            <path
   d="m 1954.72,490.748 v 15.945"
   style="fill:none;stroke:#000000;stroke-width:3.47px;stroke-linecap:round;stroke-miterlimit:1.5"
   id="path58" />
        </g>
        <g
   transform="matrix(2.4,0,0,2.4,-2825.91,-633.307)"
   id="g64">
            <path
   d="M 1984.25,476.684 V 492.52"
   style="fill:none;stroke:#000000;stroke-width:3.47px;stroke-linecap:round;stroke-miterlimit:1.5"
   id="path62" />
        </g>
        <g
   transform="matrix(2.4,0,0,2.4,-2825.91,-633.307)"
   id="g68">
            <path
   d="m 2007.87,465.896 v 14.813 l -23.62,11.811 -28.93,14.173 -28.27,10.38"
   style="fill:none;stroke:#000000;stroke-width:3.47px;stroke-linecap:round;stroke-miterlimit:1.5"
   id="path66" />
        </g>
        <g
   transform="matrix(2.4,0,0,2.4,-2825.91,-633.307)"
   id="g72">
            <path
   d="m 1926.58,517.247 -14.38,-8.192 v -15.354"
   style="fill:none;stroke:#000000;stroke-width:3.47px;stroke-linecap:round;stroke-miterlimit:1.5"
   id="path70" />
        </g>
        <g
   transform="matrix(2.4,0,0,2.4,-2825.91,-633.307)"
   id="g76">
            <path
   d="m 1926.55,517.135 11.64,11.999 80.31,-35.433 -10.63,-12.992"
   style="fill:none;stroke:#000000;stroke-width:3.47px;stroke-linecap:round;stroke-miterlimit:1.5"
   id="path74" />
        </g>
        <g
   transform="matrix(2.4,0,0,2.4,-2825.91,-633.307)"
   id="g80">
            <path
   d="m 1955.02,506.551 7.97,11.64"
   style="fill:none;stroke:#000000;stroke-width:3.47px;stroke-linecap:round;stroke-miterlimit:1.5"
   id="path78" />
        </g>
        <g
   transform="matrix(2.4,0,0,2.4,-2825.91,-633.307)"
   id="g84">
            <path
   d="m 1984.55,492.372 9.15,12.271"
   style="fill:none;stroke:#000000;stroke-width:3.47px;stroke-linecap:round;stroke-miterlimit:1.5"
   id="path82" />
        </g>
        <g
   transform="matrix(2.67718,0,0,2.63962,-3398.98,-744.351)"
   id="g88">
            <path
   d="m 1951.58,523.228 13.9,13.901 55.98,-22.759 -14.77,-15.458"
   style="fill:none;stroke:#000000;stroke-width:3.13px;stroke-linecap:round;stroke-miterlimit:1.5"
   id="path86" />
        </g>
        <g
   transform="matrix(2.67718,0,0,2.63962,-3398.98,-744.351)"
   id="g92">
            <path
   d="m 1962.2,533.858 55.71,-23.622"
   style="fill:none;stroke:#000000;stroke-width:3.13px;stroke-linecap:round;stroke-miterlimit:1.5"
   id="path90" />
        </g>
        <g
   transform="matrix(2.67718,0,0,2.63962,-3398.98,-744.351)"
   id="g96">
            <path
   d="m 1958.86,530.512 55.98,-23.072"
   style="fill:none;stroke:#000000;stroke-width:3.13px;stroke-linecap:round;stroke-miterlimit:1.5"
   id="path94" />
        </g>
        <g
   transform="matrix(2.67718,0,0,2.63962,-3398.98,-744.351)"
   id="g100">
            <path
   d="m 2011.33,503.764 -55.42,23.795"
   style="fill:none;stroke:#000000;stroke-width:3.13px;stroke-linecap:round;stroke-miterlimit:1.5"
   id="path98" />
        </g>
    </g>
    
    
    
    
    
    
    
    
    
    
    
    
    
</svg>
