<?xml version="1.0" encoding="UTF-8" standalone="no"?>
<svg
   width="316.33121"
   height="172.63979"
   viewBox="0 0 316.33121 172.63979"
   version="1.1"
   xml:space="preserve"
   style="clip-rule:evenodd;fill-rule:evenodd;stroke-linejoin:round;stroke-miterlimit:2"
   id="svg894"
   xmlns="http://www.w3.org/2000/svg"
   xmlns:svg="http://www.w3.org/2000/svg"><defs
   id="defs898" />
    
    
    
    
    
    
    
    
    
    
    
    <g
   id="woodshed"
   transform="translate(-2268.1293,-1386.7869)">
        <g
   transform="matrix(4.34642,0,0,4.34642,-7537.96,-4635.83)"
   id="g609">
            <path
   d="m 2277.16,1424.41 v -18.47 l 5.91,4.3 38.98,-6.16 v 13.24 z"
   style="fill:#ffffff;stroke:#000000;stroke-width:1.92px"
   id="path607" />
        </g>
        <g
   transform="matrix(4.34642,0,0,4.34642,-7537.96,-4635.83)"
   id="g613">
            <path
   d="m 2319.09,1404.55 -28.34,-16.27 18.3,-1.67 18.9,16.54 z"
   style="fill:#ffffff;stroke:#000000;stroke-width:1.92px"
   id="path611" />
        </g>
        <g
   transform="matrix(4.34642,0,0,4.34642,-7537.96,-4635.83)"
   id="g617">
            <path
   d="m 2290.75,1388.28 28.34,16.27 -23.62,3.73 z"
   style="fill:#ffffff;stroke:#000000;stroke-width:1.92px"
   id="path615" />
        </g>
        <g
   transform="matrix(4.34642,0,0,4.34642,-7537.96,-4635.83)"
   id="g621">
            <path
   d="m 2290.75,1388.28 4.72,20 -28.34,-17.85 z"
   style="fill:#ffffff;stroke:#000000;stroke-width:1.92px"
   id="path619" />
        </g>
        <g
   transform="matrix(4.34642,0,0,4.34642,-7537.96,-4635.83)"
   id="g625">
            <path
   d="m 2267.13,1390.43 28.34,17.85 -12.4,1.96 -25.98,-18.9 z"
   style="fill:#ffffff;stroke:#000000;stroke-width:1.92px"
   id="path623" />
        </g>
        <g
   transform="matrix(4.34642,0,0,4.34642,-7537.96,-4635.83)"
   id="g629">
            <path
   d="m 2258.71,1392.52 18.45,13.42 v 18.47 l -17.71,-9.45 z"
   style="fill:#ffffff;stroke:#000000;stroke-width:1.92px"
   id="path627" />
        </g>
        <g
   transform="matrix(4.34642,0,0,4.34642,-7537.96,-4635.83)"
   id="g633">
            <path
   d="m 2283.07,1410.24 44.88,-7.09 -18.9,-16.54 -51.96,4.73 z"
   style="fill:none;stroke:#000000;stroke-width:1.92px;stroke-linecap:round;stroke-miterlimit:1.5"
   id="path631" />
        </g>
        <g
   transform="matrix(4.34642,0,0,4.34642,-7537.96,-4635.83)"
   id="g637">
            <path
   d="m 2258.71,1392.52 0.74,22.44 17.71,9.45 v -18.47"
   style="fill:none;stroke:#000000;stroke-width:1.92px;stroke-linecap:round;stroke-miterlimit:1.5"
   id="path635" />
        </g>
        <g
   transform="matrix(4.34642,0,0,4.34642,-7537.96,-4635.83)"
   id="g641">
            <path
   d="m 2277.16,1424.41 44.89,-7.09 v -13.24"
   style="fill:none;stroke:#000000;stroke-width:1.92px;stroke-linecap:round;stroke-miterlimit:1.5"
   id="path639" />
        </g>
        <g
   transform="matrix(4.34642,0,0,4.34642,-7537.96,-4635.83)"
   id="g645">
            <path
   d="m 2267.13,1390.43 28.34,17.85 -4.72,-20 28.34,16.27"
   style="fill:none;stroke:#000000;stroke-width:1.92px;stroke-linecap:round;stroke-miterlimit:1.5"
   id="path643" />
        </g>
    </g>
    
    
</svg>
